<?xml version="1.0" encoding="utf-8"?>
<!-- Generator: Adobe Illustrator 24.1.0, SVG Export Plug-In . SVG Version: 6.00 Build 0)  -->
<svg version="1.1" xmlns="http://www.w3.org/2000/svg" xmlns:xlink="http://www.w3.org/1999/xlink" x="0px" y="0px"
	 viewBox="0 0 1457 723.3" style="enable-background:new 0 0 1457 723.3;" xml:space="preserve">
<style type="text/css">
	.st0{fill:#676767;}
	.st1{fill:#FFFFFF;}
	.st2{fill:#101327;}
	.st3{fill:#F07270;}
	.st4{fill:#7D83C0;}
	.st5{fill:#A1BCA4;}
	.st6{fill:#D0C17B;}
	.st7{fill:#80CACC;}
	.st8{fill:#B6A3CE;}
	.st9{font-family:'Helvetica-Bold';}
	.st10{font-size:9.5395px;}
	.st11{font-family:'Helvetica-Light';}
	.st12{fill:#010101;}
	.st13{fill:#8CC152;}
	.st14{fill:#C53760;}
	.st15{font-size:12.5709px;}
	.st16{fill:#E6E6E5;}
	.st17{fill:#B53A3B;}
	.st18{fill:#F39647;}
	.st19{fill:#99CA72;}
	.st20{fill:none;stroke:#2876B6;stroke-width:5;stroke-miterlimit:10;}
	.st21{fill:#2876B6;}
	.st22{fill:none;stroke:#818181;stroke-width:2;stroke-miterlimit:10;}
	.st23{fill:#B4B4B4;}
	.st24{font-family:'Avenir-Black';}
	.st25{font-size:9.0447px;}
	.st26{fill:none;stroke:#818181;stroke-miterlimit:10;}
	.st27{font-size:9.7267px;}
	.st28{opacity:0.5;fill:#FFFFFF;}
	.st29{fill:none;stroke:#CCCCCC;stroke-miterlimit:10;}
	.st30{fill:#CCCCCC;}
	.st31{fill:#365BAA;}
	.st32{fill:none;stroke:#010101;stroke-miterlimit:10;}
	.st33{fill:#EFEBE0;}
	.st34{fill:#4AA1A2;}
	.st35{fill:#4D4F50;}
</style>
<g id="Layer_1">
	<g>
		
			<image style="overflow:visible;opacity:0.75;" width="4532" height="2466" xlink:href="D2A22A0867E151B6.png"  transform="matrix(0.24 0 0 0.24 203.6998 121.2583)">
		</image>
		<g>
			<g>
				<path class="st0" d="M355.6,659.9l-143.9,1v17c0,7.3,5.4,13.1,12,13.1l1033.4,0c6.6,0,12-5.9,12-13.1v-18.3l-131.9,0.3"/>
				<path class="st0" d="M1136.1,661.2H344.8V136.4c0-3.9,3.1-7,7-7h777.3c3.9,0,7,3.1,7,7V661.2z"/>
			</g>
		</g>
	</g>
	<rect x="359.2" y="154.6" class="st1" width="762.5" height="492.8"/>
	<circle class="st1" cx="740.4" cy="143.8" r="3.6"/>
	<path class="st1" d="M844.3,674.9H636.6c-2.2,0-4.1-1.8-4.1-4.1v-10.3h215.8v10.3C848.3,673.1,846.5,674.9,844.3,674.9z"/>
	<rect x="359" y="154" class="st2" width="247.6" height="494"/>
	<path class="st3" d="M408,247.7h-27.3c-1.7,0-3-1.4-3-3v-27.3c0-1.7,1.4-3,3-3H408c1.7,0,3,1.4,3,3v27.3
		C411,246.3,409.7,247.7,408,247.7z"/>
	<path class="st4" d="M408,297.3h-27.3c-1.7,0-3-1.4-3-3V267c0-1.7,1.4-3,3-3H408c1.7,0,3,1.4,3,3v27.3
		C411,295.9,409.7,297.3,408,297.3z"/>
	<path class="st5" d="M408,346.9h-27.3c-1.7,0-3-1.4-3-3v-27.3c0-1.7,1.4-3,3-3H408c1.7,0,3,1.4,3,3v27.3
		C411,345.5,409.7,346.9,408,346.9z"/>
	<path class="st6" d="M408,396.5h-27.3c-1.7,0-3-1.4-3-3v-27.3c0-1.7,1.4-3,3-3H408c1.7,0,3,1.4,3,3v27.3
		C411,395.2,409.7,396.5,408,396.5z"/>
	<path class="st7" d="M408,446.1h-27.3c-1.7,0-3-1.4-3-3v-27.3c0-1.7,1.4-3,3-3H408c1.7,0,3,1.4,3,3v27.3
		C411,444.8,409.7,446.1,408,446.1z"/>
	<path class="st8" d="M408,495.7h-27.3c-1.7,0-3-1.4-3-3v-27.3c0-1.7,1.4-3,3-3H408c1.7,0,3,1.4,3,3v27.3
		C411,494.4,409.7,495.7,408,495.7z"/>
	<g>
		<text transform="matrix(1 0 0 1 420.9119 222.2268)" class="st1 st9 st10">general</text>
		<text transform="matrix(1 0 0 1 420.5271 234.9944)" class="st1 st11 st10">Guys this is awesome!</text>
	</g>
	<g>
		<path class="st1" d="M398.5,227.9c-0.3-1.1-0.9-1.9-1.9-2.4c-0.6-0.2-1.2-0.4-1.9-0.4c-1.3,0-2.4,0.5-3.3,1.5
			c-0.9,1-1.3,2.5-1.3,4.5c0,2,0.5,3.5,1.4,4.3c0.9,0.8,2,1.3,3.2,1.3c1.2,0,2.1-0.3,2.8-1c0.7-0.7,1.2-1.5,1.4-2.6h-3.8v-2.8h6.9
			v8.8h-2.3l-0.3-2.1c-0.7,0.8-1.3,1.3-1.8,1.6c-0.9,0.6-2,0.8-3.4,0.8c-2.2,0-4-0.8-5.4-2.3c-1.5-1.5-2.2-3.6-2.2-6.2
			c0-2.7,0.7-4.8,2.2-6.4c1.5-1.6,3.4-2.4,5.8-2.4c2.1,0,3.8,0.5,5,1.6c1.3,1.1,2,2.4,2.2,4H398.5z"/>
	</g>
	<g>
		<text transform="matrix(1 0 0 1 420.6463 272.6199)" class="st1 st9 st10">calendar</text>
		<text transform="matrix(1 0 0 1 420.2615 285.3885)" class="st1 st11 st10">3 events today</text>
	</g>
	<g>
		<path class="st1" d="M389.4,274c1.3-1.4,3-2,5.1-2c2.7,0,4.7,0.9,6,2.7c0.7,1,1.1,2,1.1,3.1h-3.4c-0.2-0.8-0.5-1.4-0.8-1.8
			c-0.6-0.7-1.5-1.1-2.7-1.1c-1.2,0-2.2,0.5-2.9,1.5s-1.1,2.4-1.1,4.3c0,1.8,0.4,3.2,1.1,4.2c0.7,0.9,1.7,1.4,2.8,1.4
			c1.2,0,2.1-0.4,2.7-1.2c0.3-0.4,0.6-1.1,0.9-1.9h3.4c-0.3,1.8-1,3.3-2.3,4.4c-1.2,1.1-2.8,1.7-4.7,1.7c-2.3,0-4.2-0.8-5.5-2.3
			c-1.3-1.5-2-3.6-2-6.3C387.1,277.8,387.8,275.6,389.4,274z"/>
	</g>
	<g>
		<text transform="matrix(1 0 0 1 420.6619 323.0125)" class="st1 st9 st10">designuiux</text>
		<text transform="matrix(1 0 0 1 420.2771 335.782)" class="st1 st11 st10">Yes that is a great design</text>
	</g>
	<g>
		<path class="st1" d="M397,322.3c1.2,0.4,2.1,1.1,2.8,2.1c0.6,0.8,1,1.7,1.2,2.7c0.2,1,0.3,1.9,0.3,2.7c0,2.2-0.4,4-1.3,5.6
			c-1.2,2-3,3.1-5.5,3.1h-7.1V322h7.1C395.5,322,396.3,322.1,397,322.3z M390.7,324.8v10.8h3.2c1.6,0,2.8-0.8,3.4-2.4
			c0.4-0.9,0.5-1.9,0.5-3.1c0-1.7-0.3-3-0.8-3.9c-0.5-0.9-1.6-1.3-3.1-1.3H390.7z"/>
	</g>
	<g>
		<text transform="matrix(1 0 0 1 420.533 373.407)" class="st1 st9 st10">jef</text>
		<text transform="matrix(1 0 0 1 420.1482 386.1746)" class="st1 st11 st10">Hi, how are you?</text>
	</g>
	<g>
		<path class="st1" d="M403.2,388.7h-17.8l0,0c-0.1,0-0.3,0-0.4-0.1c-0.4-0.2-0.6-0.7-0.4-1.2c0.1-0.3,0.3-0.6,0.5-0.9
			c1.5-3.1,2.4-5,9.2-5c6.8,0,7.7,1.9,9.2,4.9c0.2,0.3,0.3,0.6,0.4,0.9c0.1,0.1,0.1,0.3,0.1,0.5
			C404.1,388.3,403.7,388.7,403.2,388.7z"/>
		<path class="st1" d="M394.3,371c1.2,0,2.4,0.5,3.2,1.3l0,0c0.8,0.8,1.3,1.9,1.3,3.2c0,1.2-0.5,2.4-1.3,3.2c0,0,0,0-0.1,0
			c-0.8,0.8-1.9,1.3-3.1,1.3c-1.2,0-2.4-0.5-3.2-1.3c-0.8-0.8-1.3-1.9-1.3-3.2c0-1.2,0.5-2.4,1.3-3.2l0,0v0
			C392,371.5,393.1,371,394.3,371z"/>
	</g>
	<g>
		<text transform="matrix(1 0 0 1 420.6775 421.9158)" class="st1 st9 st10">ann</text>
		<text transform="matrix(1 0 0 1 420.2928 434.6834)" class="st1 st11 st10">Could you update this design?</text>
	</g>
	<g>
		<path class="st1" d="M403.2,438.3h-17.8l0,0c-0.1,0-0.3,0-0.4-0.1c-0.4-0.2-0.6-0.7-0.4-1.2c0.1-0.3,0.3-0.6,0.5-0.9
			c1.5-3.1,2.4-5,9.2-5c6.8,0,7.7,1.9,9.2,4.9c0.2,0.3,0.3,0.6,0.4,0.9c0.1,0.1,0.1,0.3,0.1,0.5
			C404.1,437.9,403.7,438.3,403.2,438.3z"/>
		<path class="st1" d="M394.3,420.6c1.2,0,2.4,0.5,3.2,1.3l0,0c0.8,0.8,1.3,1.9,1.3,3.2c0,1.2-0.5,2.4-1.3,3.2c0,0,0,0-0.1,0
			c-0.8,0.8-1.9,1.3-3.1,1.3c-1.2,0-2.4-0.5-3.2-1.3c-0.8-0.8-1.3-1.9-1.3-3.2c0-1.2,0.5-2.4,1.3-3.2l0,0v0
			C392,421.1,393.1,420.6,394.3,420.6z"/>
	</g>
	<g>
		<path class="st1" d="M390.8,482.2c0.1,0.8,0.3,1.3,0.6,1.7c0.6,0.7,1.5,1,2.9,1c0.8,0,1.5-0.1,2-0.3c1-0.3,1.5-1,1.5-1.9
			c0-0.5-0.2-1-0.7-1.3c-0.5-0.3-1.2-0.5-2.3-0.8l-1.8-0.4c-1.8-0.4-3-0.8-3.6-1.3c-1.1-0.8-1.7-1.9-1.7-3.6c0-1.5,0.5-2.7,1.6-3.7
			s2.7-1.5,4.8-1.5c1.8,0,3.3,0.5,4.5,1.4c1.2,0.9,1.9,2.3,2,4h-3.3c-0.1-1-0.5-1.7-1.3-2.1c-0.6-0.3-1.2-0.4-2.1-0.4
			c-0.9,0-1.6,0.2-2.2,0.5c-0.5,0.4-0.8,0.9-0.8,1.5c0,0.6,0.3,1,0.8,1.3c0.3,0.2,1.1,0.4,2.2,0.7l2.9,0.7c1.3,0.3,2.2,0.7,2.8,1.2
			c1,0.8,1.5,1.9,1.5,3.4c0,1.5-0.6,2.8-1.7,3.8c-1.2,1-2.8,1.5-4.9,1.5c-2.2,0-3.9-0.5-5.1-1.5c-1.2-1-1.9-2.3-1.9-4H390.8z"/>
	</g>
	<g>
		<text transform="matrix(1 0 0 1 421.1502 470.1726)" class="st1 st9 st10">coding</text>
		<text transform="matrix(1 0 0 1 420.7654 482.9412)" class="st1 st11 st10">Could you update this on the website?</text>
	</g>
	<path class="st6" d="M655.7,248h-27.3c-1.7,0-3-1.4-3-3v-27.3c0-1.7,1.4-3,3-3h27.3c1.7,0,3,1.4,3,3v27.3
		C658.8,246.6,657.4,248,655.7,248z"/>
	<path class="st7" d="M655.7,297.6h-27.3c-1.7,0-3-1.4-3-3v-27.3c0-1.7,1.4-3,3-3h27.3c1.7,0,3,1.4,3,3v27.3
		C658.8,296.2,657.4,297.6,655.7,297.6z"/>
	<g>
		<text transform="matrix(1 0 0 1 668.2751 224.8694)" class="st12 st9 st10">jef</text>
		<text transform="matrix(1 0 0 1 667.8904 237.637)" class="st12 st11 st10">Could you make change this based on the feedback from yesterday?</text>
	</g>
	<g>
		<path class="st1" d="M651,240.1h-17.8l0,0c-0.1,0-0.3,0-0.4-0.1c-0.4-0.2-0.6-0.7-0.4-1.2c0.1-0.3,0.3-0.6,0.5-0.9
			c1.5-3.1,2.4-5,9.2-5c6.8,0,7.7,1.9,9.2,4.9c0.2,0.3,0.3,0.6,0.4,0.9c0.1,0.1,0.1,0.3,0.1,0.5C651.8,239.8,651.4,240.1,651,240.1z
			"/>
		<path class="st1" d="M642.1,222.4c1.2,0,2.4,0.5,3.2,1.3l0,0c0.8,0.8,1.3,1.9,1.3,3.2s-0.5,2.4-1.3,3.2c0,0,0,0-0.1,0
			c-0.8,0.8-1.9,1.3-3.1,1.3c-1.2,0-2.4-0.5-3.2-1.3s-1.3-1.9-1.3-3.2s0.5-2.4,1.3-3.2l0,0v0C639.7,222.9,640.8,222.4,642.1,222.4z"
			/>
	</g>
	<g>
		<text transform="matrix(1 0 0 1 668.4177 273.3782)" class="st12 st9 st10">ann</text>
		<text transform="matrix(1 0 0 1 668.0349 286.1468)" class="st12 st11 st10">Could you update this design?</text>
	</g>
	<g>
		<path class="st1" d="M651,289.7h-17.8l0,0c-0.1,0-0.3,0-0.4-0.1c-0.4-0.2-0.6-0.7-0.4-1.2c0.1-0.3,0.3-0.6,0.5-0.9
			c1.5-3.1,2.4-5,9.2-5c6.8,0,7.7,1.9,9.2,4.9c0.2,0.3,0.3,0.6,0.4,0.9c0.1,0.1,0.1,0.3,0.1,0.5C651.8,289.4,651.4,289.7,651,289.7z
			"/>
		<path class="st1" d="M642.1,272c1.2,0,2.4,0.5,3.2,1.3l0,0c0.8,0.8,1.3,1.9,1.3,3.2c0,1.2-0.5,2.4-1.3,3.2c0,0,0,0-0.1,0
			c-0.8,0.8-1.9,1.3-3.1,1.3c-1.2,0-2.4-0.5-3.2-1.3c-0.8-0.8-1.3-1.9-1.3-3.2c0-1.2,0.5-2.4,1.3-3.2l0,0v0
			C639.7,272.5,640.8,272,642.1,272z"/>
	</g>
	<path class="st13" d="M656,349.5h-27.3c-1.7,0-3-1.4-3-3v-27.3c0-1.7,1.4-3,3-3H656c1.7,0,3,1.4,3,3v27.3
		C659,348.1,657.7,349.5,656,349.5z"/>
	<path class="st14" d="M656,399.1h-27.3c-1.7,0-3-1.4-3-3v-27.3c0-1.7,1.4-3,3-3H656c1.7,0,3,1.4,3,3V396
		C659,397.7,657.7,399.1,656,399.1z"/>
	<g>
		<text transform="matrix(1 0 0 1 668.5369 326.3479)" class="st12 st9 st10">kevin</text>
		<text transform="matrix(1 0 0 1 668.1521 339.1155)" class="st12 st11 st10">Yes the changes will be made as soon as possible</text>
	</g>
	<g>
		<path class="st1" d="M651.2,341.6h-17.8l0,0c-0.1,0-0.3,0-0.4-0.1c-0.4-0.2-0.6-0.7-0.4-1.2c0.1-0.3,0.3-0.6,0.5-0.9
			c1.5-3.1,2.4-5,9.2-5c6.8,0,7.7,1.9,9.2,4.9c0.2,0.3,0.3,0.6,0.4,0.9c0.1,0.1,0.1,0.3,0.1,0.5
			C652.1,341.2,651.7,341.6,651.2,341.6z"/>
		<path class="st1" d="M642.3,323.9c1.2,0,2.4,0.5,3.2,1.3l0,0c0.8,0.8,1.3,1.9,1.3,3.2c0,1.2-0.5,2.4-1.3,3.2c0,0,0,0-0.1,0
			c-0.8,0.8-1.9,1.3-3.1,1.3c-1.2,0-2.4-0.5-3.2-1.3c-0.8-0.8-1.3-1.9-1.3-3.2c0-1.2,0.5-2.4,1.3-3.2l0,0v0
			C640,324.4,641.1,323.9,642.3,323.9z"/>
	</g>
	<g>
		<text transform="matrix(1 0 0 1 668.6794 374.8567)" class="st12 st9 st10">andrew</text>
		<text transform="matrix(1 0 0 1 668.2966 387.6253)" class="st12 st11 st10">Could you update the padding, and upload it to GitHub?</text>
	</g>
	<g>
		<path class="st1" d="M651.2,391.2h-17.8l0,0c-0.1,0-0.3,0-0.4-0.1c-0.4-0.2-0.6-0.7-0.4-1.2c0.1-0.3,0.3-0.6,0.5-0.9
			c1.5-3.1,2.4-5,9.2-5c6.8,0,7.7,1.9,9.2,4.9c0.2,0.3,0.3,0.6,0.4,0.9c0.1,0.1,0.1,0.3,0.1,0.5
			C652.1,390.8,651.7,391.2,651.2,391.2z"/>
		<path class="st1" d="M642.3,373.5c1.2,0,2.4,0.5,3.2,1.3l0,0c0.8,0.8,1.3,1.9,1.3,3.2c0,1.2-0.5,2.4-1.3,3.2c0,0,0,0-0.1,0
			c-0.8,0.8-1.9,1.3-3.1,1.3c-1.2,0-2.4-0.5-3.2-1.3c-0.8-0.8-1.3-1.9-1.3-3.2c0-1.2,0.5-2.4,1.3-3.2l0,0v0
			C640,374,641.1,373.5,642.3,373.5z"/>
	</g>
	<text transform="matrix(1 0 0 1 377.4373 191.5896)" class="st1 st9 st10">Favorites</text>
	<text transform="matrix(1 0 0 1 624.8572 187.5569)" class="st12 st11 st15">#designuiux</text>
	<path class="st16" d="M686.9,356.1h-17.1c-0.8,0-1.5-0.7-1.5-1.5v-9.5c0-0.8,0.7-1.5,1.5-1.5h17.1c0.8,0,1.5,0.7,1.5,1.5v9.5
		C688.4,355.4,687.7,356.1,686.9,356.1z"/>
	<path class="st17" d="M671.4,350.4c-0.8-0.8-1.2-1.7-1.2-2.5c0-1.3,0.9-2.2,2.3-2.2c1.3,0,1.7,0.6,2.4,1.4c0.7-0.8,1.2-1.4,2.4-1.4
		c1.4,0,2.3,0.9,2.3,2.2c0,0.8-0.4,1.7-1.2,2.5l-3.5,3.5L671.4,350.4z"/>
	<g>
		<path class="st12" d="M683.7,348.8v-0.7c0.3,0,0.6,0,0.7-0.1c0.2,0,0.4-0.1,0.5-0.3c0.1-0.1,0.2-0.2,0.2-0.4c0-0.1,0-0.2,0-0.2
			h0.9v5.3h-1.1v-3.7H683.7z"/>
	</g>
	<path class="st13" d="M656.3,448.6H629c-1.7,0-3-1.4-3-3v-27.3c0-1.7,1.4-3,3-3h27.3c1.7,0,3,1.4,3,3v27.3
		C659.3,447.2,658,448.6,656.3,448.6z"/>
	<g>
		<text transform="matrix(1 0 0 1 668.8591 425.4646)" class="st12 st9 st10">kevin</text>
		<text transform="matrix(1 0 0 1 668.4744 438.2312)" class="st12 st11 st10">The design has been updated</text>
	</g>
	<g>
		<path class="st1" d="M651.5,440.7h-17.8l0,0c-0.1,0-0.3,0-0.4-0.1c-0.4-0.2-0.6-0.7-0.4-1.2c0.1-0.3,0.3-0.6,0.5-0.9
			c1.5-3.1,2.4-5,9.2-5c6.8,0,7.7,1.9,9.2,4.9c0.2,0.3,0.3,0.6,0.4,0.9c0.1,0.1,0.1,0.3,0.1,0.5C652.4,440.3,652,440.7,651.5,440.7z
			"/>
		<path class="st1" d="M642.6,423c1.2,0,2.4,0.5,3.2,1.3l0,0c0.8,0.8,1.3,1.9,1.3,3.2s-0.5,2.4-1.3,3.2c0,0,0,0-0.1,0
			c-0.8,0.8-1.9,1.3-3.1,1.3c-1.2,0-2.4-0.5-3.2-1.3c-0.8-0.8-1.3-1.9-1.3-3.2s0.5-2.4,1.3-3.2l0,0v0
			C640.3,423.5,641.4,423,642.6,423z"/>
	</g>
	<circle class="st3" cx="365.6" cy="160.5" r="2.8"/>
	<circle class="st18" cx="373.5" cy="160.5" r="2.8"/>
	<circle class="st19" cx="381.4" cy="160.5" r="2.8"/>
	<line class="st20" x1="1136.7" y1="247.4" x2="1275.7" y2="247.4"/>
	<path class="st21" d="M1427.7,329.4h-142c-5.5,0-10-4.5-10-10v-142c0-5.5,4.5-10,10-10h142c5.5,0,10,4.5,10,10v142
		C1437.7,324.9,1433.2,329.4,1427.7,329.4z"/>
	<g>
		<g>
			<g>
				<path class="st1" d="M1414.6,262.9c-3.5-3.5-7-7-10.6-10.6c-5.6-5.6-11.2-11.2-16.8-16.8c-1.3-1.3-2.6-2.6-3.8-3.8
					c-0.7-0.7-2-0.7-2.8,0c-2,2-3.9,3.9-5.9,5.9c-4.7,4.7-9.4,9.4-14,14c-5.6,5.6-11.3,11.3-17,17c-4.9,4.9-9.8,9.8-14.7,14.7
					c-2.4,2.4-4.8,4.7-7.1,7.1c0,0-0.1,0.1-0.1,0.1c-0.7,0.7-0.7,2,0,2.8c0.7,0.7,2,0.7,2.8,0c2-2,3.9-3.9,5.9-5.9
					c4.7-4.7,9.4-9.4,14-14c5.6-5.6,11.3-11.3,17-17c4.9-4.9,9.8-9.8,14.7-14.7c1.6-1.6,3.2-3.2,4.8-4.8c0.8-0.8,1.6-1.5,2.3-2.3
					c0,0,0.1-0.1,0.1-0.1c-0.9,0-1.8,0-2.8,0c3.5,3.5,7,7,10.6,10.6c5.6,5.6,11.2,11.2,16.8,16.8c1.3,1.3,2.6,2.6,3.8,3.8
					c0.7,0.7,2,0.7,2.8,0C1415.3,264.9,1415.3,263.6,1414.6,262.9L1414.6,262.9z"/>
			</g>
		</g>
		<g>
			<g>
				<path class="st1" d="M1302.1,273.4c2.8-2.9,5.7-5.7,8.5-8.6c4.5-4.5,9-9.1,13.5-13.6c1-1,2.1-2.1,3.1-3.1c-0.9,0-1.8,0-2.8,0
					c2.4,2.4,4.8,4.8,7.2,7.2c3.8,3.8,7.6,7.6,11.4,11.4c0.9,0.9,1.8,1.8,2.6,2.6c0.7,0.7,2,0.7,2.8,0c0.7-0.7,0.7-2,0-2.8
					c-2.4-2.4-4.8-4.8-7.2-7.2c-3.8-3.8-7.6-7.6-11.4-11.4c-0.9-0.9-1.8-1.8-2.6-2.6c-0.7-0.7-2-0.8-2.8,0c-2.8,2.9-5.7,5.7-8.5,8.6
					c-4.5,4.6-9,9.1-13.5,13.6c-1,1-2.1,2.1-3.1,3.1c-0.7,0.7-0.7,2,0,2.8C1300,274.2,1301.3,274.2,1302.1,273.4L1302.1,273.4z"/>
			</g>
		</g>
		<g>
			<g>
				<path class="st1" d="M1354.1,227.4c0,0.2,0,0.5,0,0.7c0,0.1,0,0.2,0,0.4c0,0,0.1-0.3,0-0.1c-0.1,0.5-0.2,1-0.4,1.5
					c0,0.1-0.2,0.6-0.1,0.4c0.1-0.2-0.1,0.3-0.2,0.4c-0.2,0.4-0.5,0.9-0.7,1.2c-0.1,0.1-0.1,0.1-0.2,0.2c0.2-0.3,0-0.1,0,0
					c-0.2,0.2-0.3,0.3-0.5,0.5c-0.1,0.1-0.3,0.3-0.4,0.4c-0.1,0.1-0.6,0.5-0.3,0.3c-0.3,0.3-0.7,0.5-1.1,0.7
					c-0.2,0.1-0.4,0.2-0.5,0.3c-0.1,0.1-0.2,0.1-0.3,0.1c0.3-0.1,0.1,0-0.1,0c-0.4,0.1-0.8,0.3-1.3,0.4c-0.1,0-0.7,0.1-0.4,0.1
					c-0.2,0-0.5,0-0.7,0.1c-0.5,0-0.9,0-1.4,0c-0.3,0,0.3,0.1,0,0c-0.1,0-0.2,0-0.4-0.1c-0.3-0.1-0.5-0.1-0.8-0.2
					c-0.2-0.1-0.4-0.1-0.6-0.2c-0.1,0-0.2-0.1-0.2-0.1c0.3,0.1,0.1,0,0,0c-0.4-0.2-0.8-0.4-1.2-0.7c-0.2-0.1-0.4-0.2-0.6-0.4
					c0.3,0.2-0.2-0.2-0.3-0.2c-0.3-0.3-0.6-0.6-0.9-1c-0.1-0.1-0.2-0.3,0,0c-0.1-0.1-0.1-0.1-0.2-0.2c-0.1-0.2-0.3-0.4-0.4-0.6
					c-0.1-0.2-0.2-0.3-0.3-0.5c-0.1-0.1-0.1-0.2-0.2-0.3c0,0-0.2-0.5-0.1-0.2c0.1,0.2-0.1-0.3-0.1-0.4c-0.1-0.2-0.1-0.4-0.2-0.7
					c-0.1-0.2-0.1-0.5-0.1-0.7c0,0,0-0.3,0-0.1c0,0.3,0-0.2,0-0.3c0-0.5,0-0.9,0-1.4c0-0.1,0.1-0.7,0-0.3c0-0.3,0.1-0.5,0.2-0.8
					c0.1-0.4,0.2-0.8,0.4-1.2c-0.1,0.4,0.1-0.2,0.2-0.3c0.1-0.2,0.2-0.4,0.3-0.6c0.1-0.2,0.2-0.4,0.4-0.6c0.1-0.1,0.1-0.2,0.2-0.3
					c-0.1,0.1-0.2,0.3,0,0c0.3-0.3,0.6-0.7,0.9-1c0.1-0.1,0.2-0.1,0.3-0.2c0,0,0.2-0.2,0.1-0.1c-0.2,0.1,0.1-0.1,0.1-0.1
					c0.1-0.1,0.2-0.1,0.3-0.2c0.4-0.2,0.8-0.5,1.2-0.7c0.1,0,0.4-0.2,0.2-0.1c-0.2,0.1,0.1,0,0.1,0c0.2-0.1,0.4-0.2,0.7-0.2
					c0.2-0.1,0.4-0.1,0.6-0.2c0.1,0,0.8-0.1,0.4-0.1c0.5-0.1,0.9-0.1,1.4-0.1c0.2,0,0.4,0,0.6,0c0.4,0,0.1,0,0,0
					c0.1,0,0.3,0.1,0.4,0.1c0.5,0.1,1,0.3,1.5,0.4c0.2,0.1,0,0-0.1,0c0.2,0.1,0.3,0.1,0.5,0.2c0.2,0.1,0.4,0.2,0.6,0.3
					c0.2,0.1,0.4,0.3,0.6,0.4c0,0,0.3,0.2,0.1,0.1c-0.2-0.1,0.2,0.2,0.2,0.2c0.4,0.3,0.7,0.7,1,1c0,0,0.3,0.3,0.1,0.1
					c-0.1-0.2,0.2,0.2,0.2,0.2c0.1,0.2,0.2,0.4,0.4,0.6c0.1,0.2,0.2,0.4,0.4,0.7c0.1,0.1,0.1,0.2,0.1,0.3c0.1,0.2-0.1-0.3,0,0.1
					c0.2,0.5,0.3,1,0.4,1.5c0,0.1,0,0.2,0,0.3c0,0.2,0-0.3,0,0.1C1354,226.8,1354.1,227.1,1354.1,227.4c0,1,0.9,2,2,2
					c1.1-0.1,2-0.9,2-2c-0.1-4.9-3.1-9.2-7.7-10.8c-4.4-1.6-9.7-0.2-12.6,3.5c-3.1,3.8-3.6,9.1-1,13.3c2.5,4.2,7.4,6.3,12.2,5.3
					c5.3-1,9.1-5.9,9.2-11.3c0-1-0.9-2-2-2C1355,225.4,1354.1,226.3,1354.1,227.4z"/>
			</g>
		</g>
		<g>
			<g>
				<path class="st1" d="M1411.2,205.7c0,1,0,2,0,3c0,2.7,0,5.3,0,8c0,3.8,0,7.6,0,11.4c0,4.5,0,9,0,13.5c0,4.7,0,9.4,0,14
					c0,4.4,0,8.8,0,13.2c0,3.6,0,7.3,0,10.9c0,2.4,0,4.7,0,7c0,0.5,0,1.1,0,1.6c0,0.1,0,0.2,0,0.3c0,0.1,0,0.1,0,0.2
					c0-0.4,0,0.1-0.1,0.2c-0.1,0.2,0,0,0-0.1c-0.1,0.1-0.1,0.2-0.2,0.3c-0.1,0.3-0.1,0.1,0,0c-0.1,0.1-0.1,0.1-0.2,0.2
					c-0.1,0.1-0.1,0.1-0.2,0.2c0,0,0.2-0.2,0.1-0.1c-0.1,0.1-0.5,0.2-0.2,0.1c-0.1,0.1-0.7,0.1-0.3,0.1c-0.8,0-1.7,0-2.5,0
					c-2.1,0-4.3,0-6.4,0c-3.2,0-6.5,0-9.7,0c-4,0-8,0-12,0c-4.5,0-9,0-13.5,0c-4.7,0-9.4,0-14.1,0c-4.6,0-9.2,0-13.8,0
					c-4.2,0-8.4,0-12.5,0c-3.5,0-7,0-10.5,0c-2.5,0-5,0-7.4,0c-1.2,0-2.4,0-3.6,0c-0.1,0-0.1,0-0.2,0c0,0-0.1,0-0.2,0
					c0.4,0-0.1,0-0.2-0.1c-0.2-0.1,0,0,0.1,0c-0.1,0-0.1-0.1-0.2-0.1c-0.1,0-0.1-0.1-0.2-0.1c0.3,0.2,0,0-0.1-0.1
					c-0.1-0.1-0.1-0.1-0.2-0.2c0,0,0.2,0.2,0.1,0.1c-0.1-0.1-0.2-0.5-0.1-0.2c-0.1-0.2-0.1-0.3-0.1-0.5c0,0.1,0,0.4,0,0
					c0-0.3,0-0.5,0-0.8c0-1.9,0-3.8,0-5.7c0-3.3,0-6.6,0-10c0-4.2,0-8.4,0-12.7c0-4.7,0-9.3,0-14c0-4.6,0-9.2,0-13.8
					c0-4.1,0-8.1,0-12.1c0-3,0-6.1,0-9.1c0-1.5,0-3,0-4.5c0-0.1,0-0.2,0-0.2c0-0.4-0.1,0.1,0-0.2c0-0.1,0.1-0.2,0.1-0.2
					c0.1-0.3-0.1,0.2,0,0c0.1-0.1,0.3-0.5,0.1-0.2c0.1-0.1,0.2-0.2,0.2-0.2c0,0,0.2-0.2,0.1-0.1c-0.1,0.1,0.2-0.1,0.3-0.2
					c0.2-0.1-0.1,0-0.1,0c0.1,0,0.2-0.1,0.3-0.1c0.3-0.1-0.2,0,0.2,0c0.2,0,0.4,0,0.6,0c1.5,0,3,0,4.6,0c2.7,0,5.5,0,8.2,0
					c3.7,0,7.4,0,11.1,0c4.3,0,8.6,0,12.9,0c4.6,0,9.3,0,13.9,0c4.7,0,9.4,0,14.1,0c4.4,0,8.8,0,13.2,0c3.9,0,7.7,0,11.6,0
					c3,0,6,0,9.1,0c1.8,0,3.7,0,5.5,0c0.4,0,0.8,0,1.2,0c0.1,0,0.1,0,0.2,0c0.4,0-0.1-0.1,0.2,0c0.1,0,0.2,0.1,0.2,0.1
					c0.3,0.1-0.2-0.1,0,0c0.1,0,0.4,0.3,0.3,0.2c-0.1-0.1,0.2,0.2,0.3,0.3c-0.2-0.2,0,0.1,0.1,0.2c0.2,0.3,0-0.2,0.1,0.2
					C1411.2,205.4,1411.2,205.5,1411.2,205.7C1411.2,205.6,1411.2,205.3,1411.2,205.7c0,1,0.9,2,2,2c1-0.1,2-0.9,2-2
					c-0.1-2.9-2.3-5.1-5.2-5.1c-0.4,0-0.7,0-1.1,0c-1.8,0-3.6,0-5.4,0c-3,0-6,0-8.9,0c-3.9,0-7.8,0-11.6,0c-4.5,0-8.9,0-13.4,0
					c-4.7,0-9.4,0-14.1,0c-4.7,0-9.4,0-14.1,0c-4.4,0-8.7,0-13.1,0c-3.7,0-7.4,0-11.1,0c-2.7,0-5.5,0-8.2,0c-1.5,0-3,0-4.5,0
					c-0.6,0-1.1,0-1.7,0.1c-2.4,0.5-4,2.8-4,5.2c0,1.4,0,2.9,0,4.3c0,3,0,6,0,9c0,4.1,0,8.2,0,12.2c0,4.7,0,9.3,0,14
					c0,4.7,0,9.4,0,14.1c0,4.3,0,8.6,0,12.8c0,3.3,0,6.7,0,10c0,1.9,0,3.8,0,5.7c0,0.4,0,0.7,0,1.1c0.3,2.7,2.5,4.8,5.2,4.8
					c1.1,0,2.2,0,3.3,0c2.5,0,4.9,0,7.4,0c3.5,0,6.9,0,10.4,0c4.2,0,8.4,0,12.7,0c4.6,0,9.3,0,13.9,0c4.8,0,9.5,0,14.3,0
					c4.5,0,9.1,0,13.6,0c4.1,0,8.1,0,12.2,0c3.3,0,6.5,0,9.8,0c2.1,0,4.3,0,6.4,0c1.2,0,2.5,0.1,3.6-0.2c2.3-0.7,3.6-2.8,3.7-5.1
					c0-0.5,0-1,0-1.5c0-2.3,0-4.6,0-6.9c0-3.6,0-7.2,0-10.8c0-4.4,0-8.9,0-13.3c0-4.7,0-9.5,0-14.2c0-4.6,0-9.1,0-13.7
					c0-3.8,0-7.7,0-11.5c0-2.7,0-5.3,0-8c0-0.9,0-1.9,0-2.8c0-1-0.9-2-2-2C1412.1,203.7,1411.2,204.6,1411.2,205.7z"/>
			</g>
		</g>
	</g>
	<line class="st20" x1="256.7" y1="158.4" x2="347.2" y2="158.4"/>
	<path class="st21" d="M175.2,179.9h-142c-5.5,0-10-4.5-10-10v-142c0-5.5,4.5-10,10-10h142c5.5,0,10,4.5,10,10v142
		C185.2,175.4,180.7,179.9,175.2,179.9z"/>
	<line class="st20" x1="259.1" y1="160.6" x2="259.1" y2="96.4"/>
	<line class="st20" x1="261.7" y1="98.4" x2="183.7" y2="98.4"/>
	<g>
		<g>
			<g>
				<path class="st1" d="M125.5,69.9c0,1.9,0,3.8,0,5.7c0,4.6,0,9.2,0,13.8c0,5.6,0,11.1,0,16.7c0,4.8,0,9.6,0,14.4
					c0,2.3,0,4.5,0,6.8c0,0.2,0,0.4,0,0.6c0-0.3,0.1-0.6,0.1-1c0,0.4-0.1,0.7-0.3,1.1c0.1-0.3,0.2-0.6,0.4-0.9
					c-0.1,0.2-0.2,0.4-0.3,0.6c-0.3,0.6,0.2-0.3,0.3-0.3c0,0-0.2,0.3-0.3,0.3c-0.1,0.1-0.2,0.1-0.2,0.2c-0.3,0.3,0.8-0.5,0.3-0.2
					c-0.2,0.1-0.4,0.3-0.7,0.4c0.3-0.1,0.6-0.2,0.9-0.4c-0.4,0.1-0.7,0.2-1.1,0.3c0.3,0,0.6-0.1,1-0.1c-0.7,0.1-1.4,0-2.1,0
					c-1.5,0-3,0-4.5,0c-5,0-10.1,0-15.1,0c-6.1,0-12.2,0-18.3,0c-5.3,0-10.5,0-15.8,0c-2.5,0-5,0-7.5,0c-0.2,0-0.4,0-0.6,0
					c0.3,0,0.6,0.1,1,0.1c-0.4,0-0.7-0.1-1.1-0.3c0.3,0.1,0.6,0.2,0.9,0.4c-0.2-0.1-0.4-0.2-0.6-0.3c-0.6-0.3,0.3,0.2,0.3,0.3
					c0,0-0.3-0.2-0.3-0.3c-0.1-0.1-0.1-0.2-0.2-0.2c-0.3-0.3,0.5,0.8,0.2,0.3c-0.1-0.2-0.3-0.4-0.4-0.7c0.1,0.3,0.2,0.6,0.4,0.9
					c-0.1-0.4-0.2-0.7-0.3-1.1c0,0.3,0.1,0.6,0.1,1c-0.1-0.6,0-1.3,0-1.9c0-1.4,0-2.8,0-4.2c0-4.6,0-9.2,0-13.8c0-5.6,0-11.1,0-16.7
					c0-4.8,0-9.6,0-14.5c0-2.3,0-4.6,0-6.9c0-0.2,0-0.4,0-0.6c0,0.3-0.1,0.6-0.1,1c0-0.4,0.1-0.7,0.3-1.1c-0.1,0.3-0.2,0.6-0.4,0.9
					c0.1-0.2,0.2-0.4,0.3-0.6c0.3-0.6-0.2,0.3-0.3,0.3c0,0,0.2-0.3,0.3-0.3c0.1-0.1,0.2-0.1,0.2-0.2c0.3-0.3-0.8,0.5-0.3,0.2
					c0.2-0.1,0.4-0.3,0.7-0.4c-0.3,0.1-0.6,0.2-0.9,0.4c0.4-0.1,0.7-0.2,1.1-0.3c-0.3,0-0.6,0.1-1,0.1c0.7-0.1,1.4,0,2.1,0
					c1.5,0,3,0,4.5,0c5,0,10.1,0,15.1,0c6.1,0,12.2,0,18.3,0c5.3,0,10.5,0,15.8,0c2.5,0,5,0,7.5,0c0.2,0,0.4,0,0.6,0
					c-0.3,0-0.6-0.1-1-0.1c0.4,0,0.7,0.1,1.1,0.3c-0.3-0.1-0.6-0.2-0.9-0.4c0.2,0.1,0.4,0.2,0.6,0.3c0.6,0.3-0.3-0.2-0.3-0.3
					c0,0,0.3,0.2,0.3,0.3c0.1,0.1,0.1,0.2,0.2,0.2c0.3,0.3-0.5-0.8-0.2-0.3c0.1,0.2,0.3,0.4,0.4,0.7c-0.1-0.3-0.2-0.6-0.4-0.9
					c0.1,0.4,0.2,0.7,0.3,1.1c0-0.3-0.1-0.6-0.1-1C125.5,69.6,125.5,69.8,125.5,69.9c0,1.9,1.7,3.7,3.6,3.6c1.9-0.1,3.7-1.6,3.6-3.6
					c-0.1-3.5-2.3-6.6-5.7-7.5c-0.8-0.2-1.6-0.3-2.4-0.3c-1,0-2,0-3,0c-4.4,0-8.9,0-13.3,0c-6.1,0-12.2,0-18.3,0
					c-5.7,0-11.4,0-17.1,0c-3.4,0-6.8,0-10.2,0c-2.4,0-4.8,0.6-6.5,2.5C55,66.1,54.3,68,54.3,70c0,0.3,0,0.6,0,0.9
					c0,3.7,0,7.4,0,11.1c0,5.9,0,11.9,0,17.8c0,5.8,0,11.5,0,17.3c0,3.3,0,6.6,0,9.9c0,0.2,0,0.5,0,0.7c0.2,3.4,2.5,6.5,5.9,7.3
					c1.1,0.3,2.2,0.2,3.4,0.2c3.8,0,7.5,0,11.3,0c5.8,0,11.7,0,17.5,0c6,0,12,0,18,0c4.1,0,8.2,0,12.4,0c0.8,0,1.5,0,2.3,0
					c4.4-0.1,7.8-3.5,7.9-7.9c0-2.8,0-5.6,0-8.4c0-5.6,0-11.2,0-16.8c0-6,0-12.1,0-18.1c0-4.1,0-8.2,0-12.3c0-0.6,0-1.2,0-1.8
					c0-1.9-1.7-3.7-3.6-3.6C127.2,66.4,125.5,67.9,125.5,69.9z"/>
			</g>
		</g>
		<g>
			<g>
				<path class="st1" d="M155.9,70.3c0,1.9,0,3.8,0,5.7c0,4.5,0,9,0,13.5c0,5.5,0,10.9,0,16.3c0,4.7,0,9.4,0,14.1
					c0,2.3-0.1,4.6,0,6.9c0,0,0,0.1,0,0.1c1.8-1,3.7-2.1,5.5-3.1c-3.4-1.8-6.8-3.7-10.3-5.5c-5.4-2.9-10.9-5.8-16.3-8.7
					c-1.2-0.7-2.5-1.3-3.7-2c0.6,1,1.2,2.1,1.8,3.1c0-2.7,0-5.5,0-8.2c0-4.3,0-8.7,0-13.1c0-1,0-2,0-3c-0.6,1-1.2,2.1-1.8,3.1
					c3.4-1.8,6.8-3.7,10.3-5.5c5.4-2.9,10.9-5.8,16.3-8.7c1.2-0.7,2.5-1.3,3.7-2c1.7-0.9,2.3-3.4,1.3-5c-1.1-1.7-3.2-2.3-5-1.3
					c-3.4,1.8-6.8,3.7-10.3,5.5c-5.4,2.9-10.9,5.8-16.3,8.7c-1.2,0.7-2.5,1.3-3.7,2c-1.1,0.6-1.8,1.9-1.8,3.1c0,2.7,0,5.5,0,8.2
					c0,4.3,0,8.7,0,13.1c0,1,0,2,0,3c0,1.3,0.7,2.6,1.8,3.1c3.4,1.8,6.8,3.7,10.3,5.5c5.4,2.9,10.9,5.8,16.3,8.7
					c1.2,0.7,2.5,1.3,3.7,2c2.4,1.3,5.5-0.3,5.5-3.1c0-1.9,0-3.8,0-5.7c0-4.5,0-9,0-13.5c0-5.5,0-10.9,0-16.3c0-4.7,0-9.4,0-14.1
					c0-2.3,0-4.6,0-6.9c0,0,0-0.1,0-0.1c0-1.9-1.7-3.7-3.6-3.6C157.5,66.8,155.9,68.3,155.9,70.3z"/>
			</g>
		</g>
	</g>
	<line class="st20" x1="1137.2" y1="535.9" x2="1209.7" y2="536.4"/>
	<path class="st21" d="M1361.2,616.9h-142c-5.5,0-10-4.5-10-10v-142c0-5.5,4.5-10,10-10h142c5.5,0,10,4.5,10,10v142
		C1371.2,612.4,1366.7,616.9,1361.2,616.9z"/>
	<path class="st1" d="M1251.1,567.2h51.5c6.6,0,13,2.4,18,6.7l18.8,16.1c0.7,0.6,1.6,1,2.6,1c0.6,0,1.1-0.1,1.7-0.4
		c1.4-0.6,2.3-2,2.3-3.6v-90.8c0-8.7-7.1-15.8-15.8-15.8h-79c-8.7,0-15.8,7.1-15.8,15.8v55.3
		C1235.3,560.1,1242.4,567.2,1251.1,567.2z M1243.2,496.1c0-4.4,3.5-7.9,7.9-7.9h79c4.4,0,7.9,3.5,7.9,7.9v82.3l-12.3-10.5
		c-6.4-5.5-14.7-8.6-23.1-8.6h-51.5c-4.4,0-7.9-3.5-7.9-7.9V496.1z"/>
	<circle class="st1" cx="1262.9" cy="523.7" r="7.9"/>
	<circle class="st1" cx="1290.6" cy="523.7" r="7.9"/>
	<circle class="st1" cx="1318.2" cy="523.7" r="7.9"/>
	<rect x="626.4" y="594.9" class="st22" width="476.8" height="34.4"/>
	<text transform="matrix(1 0 0 1 650.53 615.8768)" class="st23 st24 st25">Message</text>
	<g>
		<g>
			<g>
				<g>
					<path class="st0" d="M642.2,609.5c0.2,0.2,0.3,0.3,0.4,0.5c0,0-0.1-0.1-0.1-0.1c0.3,0.3,0.5,0.7,0.6,1.1c0,0,0-0.1,0-0.1
						c0.2,0.4,0.3,0.8,0.3,1.3c0,0,0-0.1,0-0.1c0.1,0.4,0.1,0.9,0,1.3c0,0,0-0.1,0-0.1c-0.1,0.4-0.2,0.9-0.3,1.3c0,0,0-0.1,0-0.1
						c-0.2,0.4-0.4,0.8-0.6,1.1c0,0,0.1-0.1,0.1-0.1c-0.3,0.3-0.6,0.7-0.9,0.9c0,0,0.1-0.1,0.1-0.1c-0.3,0.3-0.7,0.5-1.1,0.7
						c0,0,0.1,0,0.1-0.1c-0.4,0.2-0.8,0.3-1.2,0.4c0,0,0.1,0,0.1,0c-0.4,0.1-0.9,0.1-1.3,0c0,0,0.1,0,0.1,0
						c-0.4-0.1-0.8-0.2-1.2-0.4c0,0,0.1,0,0.1,0.1c-0.4-0.2-0.7-0.4-1.1-0.7c0,0,0.1,0.1,0.1,0.1c-0.3-0.3-0.6-0.6-0.9-0.9
						c0,0,0.1,0.1,0.1,0.1c-0.3-0.3-0.5-0.7-0.6-1.1c0,0,0,0.1,0,0.1c-0.2-0.4-0.3-0.8-0.3-1.3c0,0,0,0.1,0,0.1
						c-0.1-0.4-0.1-0.9,0-1.3c0,0,0,0.1,0,0.1c0.1-0.4,0.2-0.9,0.3-1.3c0,0,0,0.1,0,0.1c0.2-0.4,0.4-0.8,0.6-1.1
						c0,0-0.1,0.1-0.1,0.1c0.3-0.3,0.6-0.7,0.9-0.9c0,0-0.1,0.1-0.1,0.1c0.3-0.3,0.7-0.5,1.1-0.7c0,0-0.1,0-0.1,0.1
						c0.4-0.2,0.8-0.3,1.2-0.4c0,0-0.1,0-0.1,0c0.4-0.1,0.9-0.1,1.3,0c0,0-0.1,0-0.1,0c0.4,0.1,0.8,0.2,1.2,0.4c0,0-0.1,0-0.1-0.1
						c0.4,0.2,0.7,0.4,1.1,0.7c0,0-0.1-0.1-0.1-0.1C641.9,609.2,642.1,609.4,642.2,609.5c0.2,0.2,0.5,0.2,0.7,0
						c0.2-0.2,0.2-0.5,0-0.7c-0.8-0.8-1.8-1.4-2.9-1.5c-0.5-0.1-1.1-0.1-1.6,0c-0.3,0-0.6,0.1-0.9,0.2c-0.3,0.1-0.5,0.2-0.8,0.3
						c-1,0.5-1.9,1.3-2.4,2.3c-0.5,1-0.8,2.1-0.7,3.2c0.1,0.6,0.2,1.1,0.4,1.7c0.2,0.5,0.5,1,0.9,1.5c0.7,0.9,1.7,1.5,2.8,1.8
						c1,0.3,2.2,0.2,3.2-0.2c0.3-0.1,0.5-0.2,0.8-0.4c0.3-0.2,0.5-0.3,0.7-0.5c0.4-0.4,0.8-0.8,1.1-1.3c0.6-0.9,0.9-2.1,0.9-3.2
						c0-1.1-0.4-2.2-1-3.1c-0.2-0.2-0.4-0.5-0.6-0.7c-0.2-0.2-0.5-0.2-0.7,0C642,609,642,609.3,642.2,609.5z"/>
				</g>
			</g>
		</g>
		<g>
			<g>
				<g>
					<path class="st0" d="M637.3,611.3C637.3,611.3,637.3,611.3,637.3,611.3C637.3,611.3,637.3,611.2,637.3,611.3
						C637.3,611.2,637.3,611.2,637.3,611.3c0,0,0-0.1,0-0.1C637.3,611.2,637.3,611.2,637.3,611.3c0-0.1,0-0.1,0.1-0.1
						C637.3,611.2,637.3,611.2,637.3,611.3c0-0.1,0.1-0.1,0.1-0.1C637.3,611.2,637.3,611.2,637.3,611.3c0.1-0.1,0.1-0.1,0.1-0.1
						c0,0-0.1,0-0.1,0c0,0,0.1,0,0.1,0c0,0-0.1,0-0.1,0c0,0,0.1,0,0.1,0c0,0-0.1,0-0.1,0c0,0,0.1,0,0.1,0.1c0,0-0.1,0-0.1-0.1
						c0,0,0.1,0.1,0.1,0.1c0,0,0,0-0.1-0.1c0,0,0.1,0.1,0.1,0.1c0,0,0-0.1,0-0.1c0,0,0,0.1,0,0.1c0,0,0-0.1,0-0.1c0,0,0,0.1,0,0.1
						c0,0,0-0.1,0-0.1c0,0,0,0.1,0,0.1c0,0,0-0.1,0-0.1c0,0,0,0.1,0,0.1c0,0,0-0.1,0-0.1c0,0-0.1,0.1-0.1,0.1c0,0,0-0.1,0.1-0.1
						c0,0-0.1,0.1-0.1,0.1c0,0,0.1,0,0.1-0.1c0,0-0.1,0-0.1,0.1c0,0,0.1,0,0.1,0c0,0-0.1,0-0.1,0c0,0,0.1,0,0.1,0c0,0-0.1,0-0.1,0
						c0,0,0.1,0,0.1,0C637.4,611.4,637.3,611.4,637.3,611.3c0,0.1,0.1,0.1,0.1,0.1C637.3,611.4,637.3,611.3,637.3,611.3
						c0,0.1,0,0.1,0.1,0.1C637.3,611.4,637.3,611.3,637.3,611.3c0,0,0,0.1,0,0.1C637.3,611.3,637.3,611.3,637.3,611.3
						C637.3,611.3,637.3,611.3,637.3,611.3C637.3,611.3,637.3,611.3,637.3,611.3C637.3,611.2,637.3,611.2,637.3,611.3
						c0,0.1,0.1,0.3,0.1,0.4c0.1,0.1,0.2,0.2,0.4,0.2c0.3,0,0.5-0.2,0.5-0.5c0-0.4-0.2-0.7-0.6-0.9c-0.3-0.1-0.7,0-0.9,0.3
						c-0.2,0.3-0.3,0.7-0.1,1.1c0.2,0.3,0.6,0.5,1,0.4c0.4-0.1,0.7-0.5,0.7-0.9c0-0.3-0.2-0.5-0.5-0.5
						C637.5,610.8,637.3,611,637.3,611.3z"/>
				</g>
			</g>
		</g>
		<g>
			<g>
				<g>
					<path class="st0" d="M640.7,611.3C640.7,611.3,640.7,611.3,640.7,611.3C640.7,611.3,640.7,611.3,640.7,611.3
						C640.7,611.2,640.7,611.3,640.7,611.3c0,0,0-0.1,0-0.1C640.7,611.2,640.7,611.2,640.7,611.3c0-0.1,0-0.1,0.1-0.1
						C640.8,611.2,640.7,611.2,640.7,611.3c0-0.1,0.1-0.1,0.1-0.1C640.8,611.2,640.8,611.2,640.7,611.3c0.1-0.1,0.1-0.1,0.1-0.1
						c0,0-0.1,0-0.1,0c0,0,0.1,0,0.1,0c0,0-0.1,0-0.1,0c0,0,0.1,0,0.1,0c0,0-0.1,0-0.1,0c0,0,0.1,0,0.1,0.1c0,0-0.1,0-0.1-0.1
						c0,0,0.1,0.1,0.1,0.1c0,0,0,0-0.1-0.1c0,0,0.1,0.1,0.1,0.1c0,0,0-0.1,0-0.1c0,0,0,0.1,0,0.1c0,0,0-0.1,0-0.1c0,0,0,0.1,0,0.1
						c0,0,0-0.1,0-0.1c0,0,0,0.1,0,0.1c0,0,0-0.1,0-0.1c0,0,0,0.1,0,0.1c0,0,0-0.1,0-0.1c0,0-0.1,0.1-0.1,0.1c0,0,0-0.1,0.1-0.1
						c0,0-0.1,0.1-0.1,0.1c0,0,0.1,0,0.1-0.1c0,0-0.1,0-0.1,0.1c0,0,0.1,0,0.1,0c0,0-0.1,0-0.1,0c0,0,0.1,0,0.1,0c0,0-0.1,0-0.1,0
						c0,0,0.1,0,0.1,0C640.8,611.4,640.8,611.4,640.7,611.3c0,0.1,0.1,0.1,0.1,0.1C640.8,611.4,640.7,611.4,640.7,611.3
						c0,0.1,0,0.1,0.1,0.1C640.8,611.4,640.7,611.3,640.7,611.3c0,0,0,0.1,0,0.1C640.7,611.4,640.7,611.3,640.7,611.3
						C640.7,611.3,640.7,611.3,640.7,611.3C640.7,611.3,640.7,611.3,640.7,611.3C640.7,611.3,640.7,611.3,640.7,611.3
						c0,0.1,0.1,0.3,0.1,0.4c0.1,0.1,0.2,0.2,0.4,0.2c0.3,0,0.5-0.2,0.5-0.5c0-0.4-0.2-0.7-0.6-0.9c-0.3-0.1-0.7,0-0.9,0.3
						c-0.2,0.3-0.3,0.7-0.1,1.1c0.2,0.3,0.6,0.5,1,0.4c0.4-0.1,0.7-0.5,0.7-0.9c0-0.3-0.2-0.5-0.5-0.5
						C640.9,610.8,640.7,611,640.7,611.3z"/>
				</g>
			</g>
		</g>
		<g>
			<g>
				<g>
					<path class="st0" d="M641.1,613.8c-0.1,0.1-0.2,0.3-0.3,0.4c0,0,0.1-0.1,0.1-0.1c-0.1,0.2-0.3,0.4-0.5,0.5c0,0,0.1-0.1,0.1-0.1
						c-0.2,0.1-0.4,0.3-0.6,0.4c0,0,0.1,0,0.1-0.1c-0.2,0.1-0.4,0.2-0.7,0.2c0,0,0.1,0,0.1,0c-0.2,0-0.5,0-0.7,0c0,0,0.1,0,0.1,0
						c-0.2,0-0.5-0.1-0.7-0.2c0,0,0.1,0,0.1,0.1c-0.2-0.1-0.4-0.2-0.6-0.4c0,0,0.1,0.1,0.1,0.1c-0.2-0.1-0.4-0.3-0.5-0.5
						c0,0,0.1,0.1,0.1,0.1c-0.1-0.1-0.2-0.3-0.3-0.4c-0.1-0.2-0.5-0.3-0.7-0.2c-0.2,0.2-0.3,0.4-0.2,0.7c0.4,0.8,1.2,1.5,2.1,1.7
						c0.8,0.2,1.7,0.1,2.4-0.4c0.5-0.3,0.9-0.7,1.1-1.3c0.1-0.1,0.1-0.3,0-0.4c0-0.1-0.1-0.2-0.2-0.3
						C641.5,613.5,641.2,613.5,641.1,613.8L641.1,613.8z"/>
				</g>
			</g>
		</g>
	</g>
	<line class="st26" x1="1078.4" y1="612" x2="1092.2" y2="612"/>
	<line class="st26" x1="1085.3" y1="605.1" x2="1085.3" y2="618.9"/>
	<g>
		
			<image style="overflow:visible;opacity:0.75;" width="1256" height="2244" xlink:href="D2A22A0867E151BA.png"  transform="matrix(0.24 0 0 0.24 68.3398 193.2583)">
		</image>
		<g>
			<g>
				<rect x="92.9" y="215.4" class="st2" width="241.5" height="478.7"/>
				<path class="st0" d="M305.3,201.3H118.9c-23.4,0-42.4,19-42.4,42.4v423.7c0,23.4,19,42.4,42.4,42.4h186.4
					c23.4,0,42.4-19,42.4-42.4V243.6C347.7,220.2,328.7,201.3,305.3,201.3z M330.8,667.3c0,14-11.4,25.4-25.4,25.4H118.9
					c-14,0-25.4-11.4-25.4-25.4V243.6c0-14,11.4-25.4,25.4-25.4h25.4v8.5c0,4.7,3.8,8.5,8.5,8.5h118.6c4.7,0,8.5-3.8,8.5-8.5v-8.5
					h25.4c14,0,25.4,11.4,25.4,25.4V667.3z"/>
				<path class="st3" d="M133.9,330.8h-28c-1.7,0-3-1.4-3-3v-28c0-1.7,1.4-3,3-3h28c1.7,0,3,1.4,3,3v28
					C136.9,329.4,135.6,330.8,133.9,330.8z"/>
				<path class="st4" d="M133.9,381.3h-28c-1.7,0-3-1.4-3-3v-28c0-1.7,1.4-3,3-3h28c1.7,0,3,1.4,3,3v28
					C136.9,380,135.6,381.3,133.9,381.3z"/>
				<path class="st5" d="M133.9,431.9h-28c-1.7,0-3-1.4-3-3v-28c0-1.7,1.4-3,3-3h28c1.7,0,3,1.4,3,3v28
					C136.9,430.6,135.6,431.9,133.9,431.9z"/>
				<path class="st6" d="M133.9,482.5h-28c-1.7,0-3-1.4-3-3v-28c0-1.7,1.4-3,3-3h28c1.7,0,3,1.4,3,3v28
					C136.9,481.1,135.6,482.5,133.9,482.5z"/>
				<path class="st7" d="M133.9,533.1h-28c-1.7,0-3-1.4-3-3v-28c0-1.7,1.4-3,3-3h28c1.7,0,3,1.4,3,3v28
					C136.9,531.7,135.6,533.1,133.9,533.1z"/>
				<path class="st8" d="M133.9,583.7h-28c-1.7,0-3-1.4-3-3v-28c0-1.7,1.4-3,3-3h28c1.7,0,3,1.4,3,3v28
					C136.9,582.3,135.6,583.7,133.9,583.7z"/>
				<g>
					<text transform="matrix(1 0 0 1 147.0413 304.7981)" class="st1 st9 st27">general</text>
					<text transform="matrix(1 0 0 1 146.6487 317.8157)" class="st1 st11 st27">Guys this is awesome!</text>
				</g>
				<g>
					<path class="st1" d="M124.2,310.6c-0.3-1.1-0.9-1.9-1.9-2.4c-0.6-0.3-1.2-0.4-1.9-0.4c-1.4,0-2.5,0.5-3.3,1.5
						c-0.9,1-1.3,2.6-1.3,4.6c0,2.1,0.5,3.5,1.4,4.4c0.9,0.9,2,1.3,3.2,1.3c1.2,0,2.1-0.3,2.9-1c0.8-0.7,1.2-1.6,1.4-2.7h-3.9v-2.8
						h7v9h-2.3l-0.4-2.1c-0.7,0.8-1.3,1.4-1.8,1.7c-0.9,0.6-2.1,0.9-3.4,0.9c-2.2,0-4.1-0.8-5.5-2.3c-1.5-1.5-2.2-3.7-2.2-6.4
						c0-2.7,0.7-4.9,2.2-6.5c1.5-1.6,3.5-2.5,5.9-2.5c2.1,0,3.9,0.5,5.1,1.6c1.3,1.1,2,2.4,2.2,4.1H124.2z"/>
				</g>
				<g>
					<text transform="matrix(1 0 0 1 146.7708 356.1799)" class="st1 st9 st27">calendar</text>
					<text transform="matrix(1 0 0 1 146.3782 369.1975)" class="st1 st11 st27">3 events today</text>
				</g>
				<g>
					<path class="st1" d="M114.9,357.6c1.4-1.4,3.1-2.1,5.2-2.1c2.8,0,4.8,0.9,6.1,2.8c0.7,1,1.1,2.1,1.2,3.1h-3.5
						c-0.2-0.8-0.5-1.4-0.9-1.8c-0.6-0.7-1.6-1.1-2.8-1.1c-1.3,0-2.2,0.5-3,1.5c-0.7,1-1.1,2.5-1.1,4.4c0,1.9,0.4,3.3,1.1,4.2
						c0.8,0.9,1.7,1.4,2.9,1.4c1.2,0,2.1-0.4,2.8-1.2c0.3-0.4,0.6-1.1,0.9-1.9h3.5c-0.3,1.8-1.1,3.3-2.3,4.5
						c-1.2,1.1-2.8,1.7-4.8,1.7c-2.4,0-4.3-0.8-5.6-2.3c-1.4-1.6-2.1-3.7-2.1-6.4C112.5,361.5,113.3,359.2,114.9,357.6z"/>
				</g>
				<g>
					<text transform="matrix(1 0 0 1 146.7874 407.5618)" class="st1 st9 st27">designuiux</text>
					<text transform="matrix(1 0 0 1 146.3948 420.5793)" class="st1 st11 st27">Yes that is a great design</text>
				</g>
				<g>
					<path class="st1" d="M122.7,406.9c1.2,0.4,2.1,1.1,2.9,2.1c0.6,0.8,1,1.7,1.2,2.7c0.2,1,0.3,1.9,0.3,2.8c0,2.2-0.4,4.1-1.3,5.7
						c-1.2,2.1-3.1,3.1-5.6,3.1h-7.2v-16.8h7.2C121.1,406.5,122,406.6,122.7,406.9z M116.2,409.4v11h3.2c1.7,0,2.8-0.8,3.5-2.5
						c0.4-0.9,0.5-2,0.5-3.2c0-1.7-0.3-3-0.8-3.9c-0.5-0.9-1.6-1.4-3.2-1.4H116.2z"/>
				</g>
				<g>
					<text transform="matrix(1 0 0 1 146.6555 458.9446)" class="st1 st9 st27">jef</text>
					<text transform="matrix(1 0 0 1 146.263 471.9622)" class="st1 st11 st27">Hi, how are you?</text>
				</g>
				<g>
					<path class="st1" d="M129,474.5h-18.1l0,0c-0.1,0-0.3,0-0.4-0.1c-0.4-0.2-0.6-0.8-0.4-1.2c0.1-0.3,0.3-0.6,0.5-1
						c1.5-3.1,2.5-5.1,9.4-5.1c6.9,0,7.9,1.9,9.4,5c0.2,0.3,0.3,0.7,0.5,0.9c0.1,0.1,0.1,0.3,0.1,0.5
						C129.9,474.1,129.5,474.5,129,474.5z"/>
					<path class="st1" d="M119.9,456.5c1.3,0,2.4,0.5,3.2,1.3l0,0c0.8,0.8,1.3,2,1.3,3.2c0,1.3-0.5,2.4-1.3,3.2c0,0,0,0-0.1,0
						c-0.8,0.8-1.9,1.3-3.2,1.3c-1.3,0-2.4-0.5-3.2-1.3c-0.8-0.8-1.3-2-1.3-3.2c0-1.3,0.5-2.4,1.3-3.2l0,0v0
						C117.5,457,118.7,456.5,119.9,456.5z"/>
				</g>
				<g>
					<text transform="matrix(1 0 0 1 146.802 508.4045)" class="st1 st9 st27">ann</text>
					<text transform="matrix(1 0 0 1 146.4114 521.4231)" class="st1 st11 st27">Could you update this design?</text>
				</g>
				<g>
					<path class="st1" d="M129,525.1h-18.1l0,0c-0.1,0-0.3,0-0.4-0.1c-0.4-0.2-0.6-0.8-0.4-1.2c0.1-0.3,0.3-0.6,0.5-1
						c1.5-3.1,2.5-5.1,9.4-5.1c6.9,0,7.9,1.9,9.4,5c0.2,0.3,0.3,0.7,0.5,0.9c0.1,0.1,0.1,0.3,0.1,0.5
						C129.9,524.7,129.5,525.1,129,525.1z"/>
					<path class="st1" d="M119.9,507c1.3,0,2.4,0.5,3.2,1.3l0,0c0.8,0.8,1.3,2,1.3,3.2s-0.5,2.4-1.3,3.2c0,0,0,0-0.1,0
						c-0.8,0.8-1.9,1.3-3.2,1.3c-1.3,0-2.4-0.5-3.2-1.3c-0.8-0.8-1.3-2-1.3-3.2s0.5-2.4,1.3-3.2l0,0v0
						C117.5,507.5,118.7,507,119.9,507z"/>
				</g>
				<g>
					<path class="st1" d="M116.3,569.9c0.1,0.8,0.3,1.3,0.6,1.7c0.6,0.7,1.6,1,3,1c0.8,0,1.5-0.1,2.1-0.3c1-0.3,1.5-1,1.5-1.9
						c0-0.6-0.2-1-0.7-1.3c-0.5-0.3-1.3-0.6-2.3-0.8l-1.8-0.4c-1.8-0.4-3-0.8-3.7-1.3c-1.1-0.8-1.7-2-1.7-3.6c0-1.5,0.6-2.8,1.7-3.8
						c1.1-1,2.7-1.5,4.9-1.5c1.8,0,3.3,0.5,4.6,1.4c1.3,0.9,1.9,2.3,2,4.1H123c-0.1-1-0.5-1.7-1.4-2.2c-0.6-0.3-1.3-0.4-2.1-0.4
						c-0.9,0-1.7,0.2-2.2,0.5c-0.6,0.4-0.8,0.9-0.8,1.5c0,0.6,0.3,1,0.8,1.3c0.4,0.2,1.1,0.4,2.2,0.7l2.9,0.7
						c1.3,0.3,2.3,0.7,2.9,1.2c1,0.8,1.5,1.9,1.5,3.4c0,1.5-0.6,2.8-1.8,3.8c-1.2,1-2.9,1.5-5,1.5c-2.2,0-4-0.5-5.2-1.5
						c-1.3-1-1.9-2.4-1.9-4.1H116.3z"/>
				</g>
				<g>
					<text transform="matrix(1 0 0 1 147.2845 557.6077)" class="st1 st9 st27">coding</text>
					<text transform="matrix(1 0 0 1 146.8919 570.6262)" class="st1 st11 st27">Could you update this on the website?</text>
				</g>
				<path class="st28" d="M319.7,278.2H105.9c-1.7,0-3-1.4-3-3v-11.5c0-1.7,1.4-3,3-3h213.8c1.7,0,3,1.4,3,3v11.5
					C322.7,276.9,321.4,278.2,319.7,278.2z"/>
				<g>
					<circle class="st29" cx="108.7" cy="269.5" r="2.9"/>
				</g>
				<g>
					<line class="st29" x1="111.2" y1="271.4" x2="115" y2="274.4"/>
				</g>
				<text transform="matrix(1 0 0 1 121.2386 273.3127)" class="st30 st11 st27">Search</text>
			</g>
		</g>
	</g>
	<g>
		<text transform="matrix(1 0 0 1 674.801 454.42)" class="st31 st11 st10">Final design.jpg</text>
	</g>
	<line class="st32" x1="669.7" y1="440.9" x2="669.7" y2="542.9"/>
</g>
<g id="Object">
	<g>
		<path class="st33" d="M763.3,467.9h-41.7h-41.7c-2.6,0-4.8,2.2-4.8,5v64.3c0,2.8,2.1,5,4.8,5h41.7h41.7c2.6,0,4.8-2.2,4.8-5v-64.3
			C768,470.1,765.9,467.9,763.3,467.9z"/>
		<path class="st34" d="M719.8,524l-9.5-12c-1.2-1.5-4.3-1.5-5.5,0l-28.2,24c-1.2,1.5,0.3,3.5,2.8,3.5h28.2h11.8h2.5v-12.9
			L719.8,524z"/>
		<path class="st34" d="M766.9,534.6l-17.3-33.3c-1.7-2.2-6-2.2-7.7,0l-13.2,16.7l-6.8,8.6l0,0l0,0v12.9h0h4.7h19.2h17.8
			C767,539.4,768.6,536.7,766.9,534.6z"/>
		<g>
			<path class="st6" d="M693.4,495.7c0,3.9,3,7,6.6,7v-14C696.4,488.7,693.4,491.8,693.4,495.7z"/>
			<path class="st6" d="M700,488.7v14c3.6,0,6.6-3.1,6.6-7C706.6,491.8,703.7,488.7,700,488.7z"/>
		</g>
		<path class="st35" d="M683.5,539.2c-2.4,0-4.4-2.1-4.4-4.6v-59.4c0-2.6,2-4.6,4.4-4.6h38.2v-2.7H680c-2.6,0-4.8,2.3-4.8,5.1v64.8
			c0,2.8,2.1,5.1,4.8,5.1h41.7v-3.5H683.5z"/>
		<path class="st35" d="M763.4,467.9h-41.7v2.7h38.2c2.4,0,4.4,2.1,4.4,4.6v59.4c0,2.6-2,4.6-4.4,4.6h-38.2v3.5h41.7
			c2.6,0,4.8-2.3,4.8-5.1v-64.8C768.2,470.1,766,467.9,763.4,467.9z"/>
	</g>
</g>
</svg>
