<svg xmlns="http://www.w3.org/2000/svg" viewBox="0 0 364 400.51"><defs><style>.cls-1{fill:#2876b6;}.cls-14,.cls-2,.cls-21{fill:none;stroke-miterlimit:10;}.cls-2{stroke:#2876b6;stroke-width:5px;}.cls-3{fill:#fff;}.cls-4{fill:#e6e6e5;}.cls-5{fill:#676767;}.cls-6{fill:#d0c17b;}.cls-7{fill:#80cacc;}.cls-13,.cls-8,.cls-9{font-size:6.06px;}.cls-15,.cls-19,.cls-8,.cls-9{fill:#010101;}.cls-8{font-family:Helvetica-Bold, Helvetica;font-weight:700;}.cls-13,.cls-19,.cls-9{font-family:Helvetica-Light, Helvetica;font-weight:300;}.cls-10{fill:#8cc152;}.cls-11{fill:#c53760;}.cls-12{fill:#b53a3b;}.cls-13{fill:#365baa;}.cls-14{stroke:#010101;}.cls-16{fill:#efebe0;}.cls-17{fill:#4aa1a2;}.cls-18{fill:#4d4f50;}.cls-19{font-size:6.28px;}.cls-20{fill:#989898;}.cls-21{stroke:#989898;stroke-linecap:round;stroke-width:0.5px;}</style></defs><g id="Isolation_Mode" data-name="Isolation Mode"><rect class="cls-1" y="113.08" width="58.7" height="58.7" rx="10"/><line class="cls-2" x1="86.43" y1="142.25" x2="58.16" y2="142.25"/><path class="cls-3" d="M44.14,138.79v18.34c0,.82,0,1.64,0,2.46a1.27,1.27,0,0,1,0,.2c0-.12,0-.23,0-.35a2,2,0,0,1-.1.4l.13-.32a1.27,1.27,0,0,1-.12.23c-.12.21.08-.12.09-.11s-.08.1-.09.11l-.09.07c-.1.11.29-.18.11-.08l-.25.13.32-.13a2.6,2.6,0,0,1-.4.1l.36-.05c-.26,0-.51,0-.77,0H21l.35.05a2.6,2.6,0,0,1-.4-.1l.32.13-.23-.12c-.21-.12.12.07.1.09l-.1-.1-.08-.08c-.1-.1.19.28.09.11a2,2,0,0,1-.13-.25l.13.32a1.8,1.8,0,0,1-.1-.4c0,.12,0,.23,0,.35,0-.23,0-.47,0-.7V141.3c0-.83,0-1.66,0-2.49,0-.07,0-.14,0-.2,0,.12,0,.23,0,.35a1.8,1.8,0,0,1,.1-.4l-.13.32.12-.23c.12-.21-.08.12-.09.11s.08-.1.09-.11l.09-.07c.1-.11-.28.18-.11.08l.25-.13-.32.13a2.6,2.6,0,0,1,.4-.1l-.35.05a6.43,6.43,0,0,1,.76,0H44.14l-.36-.05a2.6,2.6,0,0,1,.4.1l-.32-.13.23.12c.21.12-.12-.07-.1-.09l.1.09.08.09c.1.1-.19-.28-.09-.11a1.19,1.19,0,0,1,.13.25l-.13-.32a1.8,1.8,0,0,1,.1.4c0-.12,0-.23,0-.35a1,1,0,0,1,0,.18,1.32,1.32,0,1,0,2.64,0,2.88,2.88,0,0,0-2.07-2.73,3.07,3.07,0,0,0-.86-.11H21.44a3,3,0,0,0-2.35.89,2.91,2.91,0,0,0-.77,2V159.7a2.85,2.85,0,0,0,2.12,2.65,5.1,5.1,0,0,0,1.23.09H43.93a2.87,2.87,0,0,0,2.85-2.87c0-1,0-2,0-3V138.79a1.32,1.32,0,0,0-2.64,0Z" transform="translate(-7.05 -6.83)"/><path class="cls-3" d="M55.13,138.94v18c0,.83,0,1.66,0,2.49v0l2-1.14-3.71-2-5.92-3.16-1.35-.72.66,1.14V144.8l-.66,1.14,3.72-2,5.92-3.17,1.34-.72a1.32,1.32,0,0,0,.48-1.8,1.35,1.35,0,0,0-1.81-.48l-3.71,2-5.92,3.16-1.35.72a1.34,1.34,0,0,0-.66,1.14v8.79a1.32,1.32,0,0,0,.66,1.14l3.72,2,5.92,3.16,1.34.72a1.33,1.33,0,0,0,2-1.14v-18c0-.83,0-1.66,0-2.49v0a1.32,1.32,0,0,0-2.64,0Z" transform="translate(-7.05 -6.83)"/><line class="cls-2" x1="255.21" y1="222.38" x2="305.45" y2="222.38"/><rect class="cls-1" x="305.45" y="193.47" width="58.55" height="58.55" rx="10"/><path class="cls-3" d="M362.7,234.82,358.88,231l-6.09-6.08-1.38-1.39a.72.72,0,0,0-1,0l-2.13,2.13-5.08,5.07-6.13,6.14-5.3,5.29c-.86.86-1.74,1.7-2.58,2.58l0,0a.71.71,0,0,0,1,1l2.13-2.13,5.08-5.08,6.13-6.13,5.3-5.3,1.74-1.75c.28-.27.57-.54.84-.83l0,0h-1l3.82,3.82,6.09,6.09,1.38,1.38a.72.72,0,0,0,1,0,.71.71,0,0,0,0-1Z" transform="translate(-7.05 -6.83)"/><path class="cls-3" d="M322,238.63l3.07-3.09,4.9-4.93,1.12-1.13h-1l2.58,2.59,4.11,4.1.95,1a.74.74,0,0,0,1,0,.73.73,0,0,0,0-1l-2.59-2.58-4.1-4.11-.95-1a.72.72,0,0,0-1,0l-3.08,3.09-4.89,4.93c-.38.37-.75.75-1.12,1.13a.71.71,0,0,0,1,1Z" transform="translate(-7.05 -6.83)"/><path class="cls-3" d="M340.83,222c0,.09,0,.18,0,.27l0,.13s0-.12,0,0a3,3,0,0,1-.13.52s-.08.22-.05.15-.05.12-.07.15-.17.3-.27.45l-.05.07c.08-.1,0,0,0,0a1.46,1.46,0,0,0-.16.19l-.16.15-.12.1a2,2,0,0,1-.39.25l-.19.1-.11.05c.09,0,0,0,0,0a3.47,3.47,0,0,1-.46.13l-.12,0-.26,0a4,4,0,0,1-.49,0c-.12,0,.1,0,0,0l-.13,0-.28-.06-.2-.07-.09,0c.12.05,0,0,0,0a3,3,0,0,1-.43-.24l-.21-.14c.12.09-.07-.06-.09-.08s-.23-.24-.34-.36-.08-.1,0,0l-.05-.07c-.05-.07-.1-.14-.14-.21l-.11-.19-.05-.11s-.08-.17,0-.09a.71.71,0,0,1-.05-.15,2.25,2.25,0,0,1-.08-.24,1.84,1.84,0,0,0-.05-.25s0-.12,0,0,0-.08,0-.1a2,2,0,0,1,0-.49s0-.23,0-.1l.06-.28a3,3,0,0,1,.14-.45c-.05.13,0-.09.06-.12a2.25,2.25,0,0,1,.12-.21,1.07,1.07,0,0,1,.13-.21l.07-.1h0c.11-.12.22-.25.34-.36l.1-.08s.08-.07,0,0,0,0,.05,0l.11-.07a3.62,3.62,0,0,1,.43-.24l.06,0h0l.24-.08.22,0s.31-.05.16,0a4.1,4.1,0,0,1,.49,0l.23,0c.14,0,0,0,0,0l.15,0a3.44,3.44,0,0,1,.55.15h0l.17.08.21.12.24.15,0,0,.07.06a4.31,4.31,0,0,1,.37.37l0,.05c-.05-.07.06.08.06.07l.13.21a2,2,0,0,1,.13.25.37.37,0,0,1,.05.11c0,.08,0-.09,0,0a3.75,3.75,0,0,1,.15.55s0,.06,0,.1,0-.1,0,0a2,2,0,0,1,0,.33.71.71,0,0,0,.71.71.7.7,0,0,0,.7-.71,4.2,4.2,0,0,0-2.77-3.91,4.15,4.15,0,0,0-4.57,1.25,4.16,4.16,0,1,0,7.35,2.66.71.71,0,0,0-1.42,0Z" transform="translate(-7.05 -6.83)"/><path class="cls-3" d="M361.49,214.14V244.2c0-.14,0,0,0,.09s0,0,0,0a.54.54,0,0,0-.05.11c-.06.11,0,0,0,0l-.06.06a.2.2,0,0,1-.07.06s.09-.05,0,0-.2.09-.08.06c-.05,0-.25,0-.12,0h-38.5c.13,0,0,0-.09,0s0,0,0,0l-.08-.05-.07,0c.11.07,0,0,0,0l-.06-.06s.05.09,0,0-.09-.19-.06-.08a1,1,0,0,1,0-.18s0,.13,0,0v-30c0-.13,0,.06,0-.06a.29.29,0,0,0,0-.09c0-.11-.05.09,0,0s.13-.18.05-.08l.08-.09s.09-.07,0,0,.08,0,.1-.06,0,0,0,0l.11,0c.13,0-.06,0,.07,0H361c.13,0-.05,0,.06,0l.09,0c.11,0-.09-.05,0,0l.11.06c-.05,0,.09.09.11.11s0,0,0,.06,0-.06,0,.06a.53.53,0,0,0,0,.12v0a.71.71,0,0,0,.71.71.73.73,0,0,0,.71-.71,1.88,1.88,0,0,0-1.9-1.85H322.87a3.08,3.08,0,0,0-.6,0,1.88,1.88,0,0,0-1.44,1.87c0,.52,0,1,0,1.55v28.11a2.51,2.51,0,0,0,0,.39,1.89,1.89,0,0,0,1.88,1.73c.4,0,.8,0,1.2,0h36.36a4.41,4.41,0,0,0,1.31-.08,1.91,1.91,0,0,0,1.33-1.85V214.14a.72.72,0,0,0-1.43,0Z" transform="translate(-7.05 -6.83)"/><line class="cls-2" x1="323.97" y1="113.75" x2="210.89" y2="113.75"/><rect class="cls-1" x="291.79" width="58.63" height="58.63" rx="10"/><path class="cls-3" d="M314,47.45h18.64a10,10,0,0,1,6.51,2.41l6.79,5.82a1.43,1.43,0,0,0,2.36-1.08V21.72A5.73,5.73,0,0,0,342.58,16H314a5.73,5.73,0,0,0-5.72,5.72v20A5.73,5.73,0,0,0,314,47.45Zm-2.86-25.73A2.86,2.86,0,0,1,314,18.86h28.58a2.86,2.86,0,0,1,2.86,2.86V51.49L341,47.69a12.85,12.85,0,0,0-8.37-3.1H314a2.86,2.86,0,0,1-2.86-2.86Z" transform="translate(-7.05 -6.83)"/><circle class="cls-3" cx="311.24" cy="24.89" r="2.86"/><circle class="cls-3" cx="321.24" cy="24.89" r="2.86"/><circle class="cls-3" cx="331.25" cy="24.89" r="2.86"/><line class="cls-2" x1="321.47" y1="58.47" x2="321.47" y2="113.61"/><rect class="cls-3" x="96.18" y="92.68" width="150.43" height="298.1"/><rect class="cls-4" x="96.41" y="91.74" width="150.43" height="33.8"/><rect class="cls-4" x="95.21" y="361.03" width="150.43" height="30.23"/><path class="cls-5" d="M235.52,90.7H119.42A26.4,26.4,0,0,0,93,117.09V381a26.39,26.39,0,0,0,26.39,26.39h116.1A26.39,26.39,0,0,0,261.91,381V117.09A26.4,26.4,0,0,0,235.52,90.7ZM251.35,381a15.83,15.83,0,0,1-15.83,15.83H119.42A15.83,15.83,0,0,1,103.59,381V117.09a15.83,15.83,0,0,1,15.83-15.83h15.83v5.28a5.27,5.27,0,0,0,5.28,5.27h73.88a5.28,5.28,0,0,0,5.28-5.27v-5.28h15.83a15.83,15.83,0,0,1,15.83,15.83Z" transform="translate(-7.05 -6.83)"/><rect class="cls-6" x="105.01" y="133.11" width="21.22" height="21.22" rx="3.04"/><rect class="cls-7" x="105.01" y="164.64" width="21.22" height="21.22" rx="3.04"/><text class="cls-8" transform="translate(132.29 139.64)">jef</text><text class="cls-9" transform="translate(132.04 147.76)">Could you make change this based <tspan x="0" y="7.28">on the feedback from yesterday?</tspan></text><path class="cls-3" d="M128.32,156.18H117a.57.57,0,0,1-.25-.06.55.55,0,0,1-.24-.74c.08-.16.19-.38.29-.6,1-2,1.54-3.17,5.86-3.17s4.89,1.2,5.83,3.14c.1.21.2.41.29.58a.61.61,0,0,1,.08.3A.55.55,0,0,1,128.32,156.18Z" transform="translate(-7.05 -6.83)"/><path class="cls-3" d="M122.67,144.92a2.84,2.84,0,0,1,2,.84h0a2.82,2.82,0,0,1,.84,2,2.86,2.86,0,0,1-.84,2l0,0a2.87,2.87,0,0,1-4,0,2.89,2.89,0,0,1-.83-2,2.86,2.86,0,0,1,.83-2h0A2.85,2.85,0,0,1,122.67,144.92Z" transform="translate(-7.05 -6.83)"/><text class="cls-8" transform="translate(132.37 170.48)">ann</text><text class="cls-9" transform="translate(132.13 178.6)">Could you update this design?</text><path class="cls-3" d="M128.32,187.71H117a.57.57,0,0,1-.25-.06.55.55,0,0,1-.24-.74l.29-.59c1-2,1.54-3.17,5.86-3.17s4.89,1.19,5.83,3.14l.29.58a.55.55,0,0,1-.47.84Z" transform="translate(-7.05 -6.83)"/><path class="cls-3" d="M122.67,176.45a2.84,2.84,0,0,1,2,.84h0a2.85,2.85,0,0,1,0,4l0,0a2.85,2.85,0,0,1-4,0,2.87,2.87,0,0,1,0-4h0A2.85,2.85,0,0,1,122.67,176.45Z" transform="translate(-7.05 -6.83)"/><rect class="cls-10" x="105.17" y="197.61" width="21.22" height="21.22" rx="3.04"/><rect class="cls-11" x="105.17" y="235.94" width="21.22" height="21.22" rx="3.04"/><text class="cls-8" transform="translate(132.45 204.15)">kevin</text><text class="cls-9" transform="translate(132.21 212.27)">Yes the changes will be made as <tspan x="0" y="7.28">soon as possible</tspan></text><path class="cls-3" d="M128.48,220.69h-11.3a.54.54,0,0,1-.25-.06.55.55,0,0,1-.24-.74c.08-.16.19-.38.29-.6,1-2,1.54-3.17,5.85-3.17s4.9,1.2,5.84,3.14l.28.58a.62.62,0,0,1,.09.3A.56.56,0,0,1,128.48,220.69Z" transform="translate(-7.05 -6.83)"/><path class="cls-3" d="M122.83,209.43a2.87,2.87,0,0,1,2,.83h0a2.82,2.82,0,0,1,.84,2,2.86,2.86,0,0,1-.84,2l0,0a2.87,2.87,0,0,1-4,0,2.86,2.86,0,0,1-.84-2,2.82,2.82,0,0,1,.84-2h0A2.87,2.87,0,0,1,122.83,209.43Z" transform="translate(-7.05 -6.83)"/><text class="cls-8" transform="translate(132.54 241.78)">andrew</text><text class="cls-9" transform="translate(132.3 249.9)">Could you update the padding, and <tspan x="0" y="7.28">upload it to GitHub?</tspan></text><path class="cls-3" d="M128.48,259h-11.3a.45.45,0,0,1-.25-.07.55.55,0,0,1-.24-.74l.29-.59c1-2,1.54-3.17,5.85-3.17s4.9,1.19,5.84,3.14l.28.58a.55.55,0,0,1,.09.29A.56.56,0,0,1,128.48,259Z" transform="translate(-7.05 -6.83)"/><path class="cls-3" d="M122.83,247.75a2.84,2.84,0,0,1,2,.84h0a2.85,2.85,0,0,1,0,4l0,0a2.85,2.85,0,0,1-4,0,2.85,2.85,0,0,1,0-4h0A2.84,2.84,0,0,1,122.83,247.75Z" transform="translate(-7.05 -6.83)"/><rect class="cls-4" x="132.29" y="221.88" width="12.79" height="7.99" rx="1.52"/><path class="cls-12" d="M141.3,233.09a2.24,2.24,0,0,1-.75-1.57A1.35,1.35,0,0,1,142,230.1c.81,0,1.08.37,1.55.91.48-.54.75-.91,1.56-.91a1.35,1.35,0,0,1,1.43,1.42,2.24,2.24,0,0,1-.75,1.57l-2.24,2.23Z" transform="translate(-7.05 -6.83)"/><rect class="cls-10" x="105.38" y="267.41" width="21.22" height="21.22" rx="3.04"/><text class="cls-8" transform="translate(132.66 273.95)">kevin</text><text class="cls-9" transform="translate(132.41 282.07)">The design has been updated</text><path class="cls-3" d="M128.69,290.49H117.38a.57.57,0,0,1-.25-.06.55.55,0,0,1-.24-.74l.3-.6c1-2,1.53-3.17,5.85-3.17s4.89,1.19,5.83,3.14c.1.2.2.41.29.58a.58.58,0,0,1,.08.3A.55.55,0,0,1,128.69,290.49Z" transform="translate(-7.05 -6.83)"/><path class="cls-3" d="M123,279.23a2.85,2.85,0,0,1,2,.83h0a2.85,2.85,0,0,1,.83,2,2.9,2.9,0,0,1-.83,2s0,0,0,0a2.86,2.86,0,0,1-4.84-2.06,2.82,2.82,0,0,1,.84-2h0A2.86,2.86,0,0,1,123,279.23Z" transform="translate(-7.05 -6.83)"/><text class="cls-13" transform="translate(136.43 292.36)">Final design.jpg</text><line class="cls-14" x1="133.17" y1="283.73" x2="133.17" y2="348.57"/><path class="cls-15" d="M148.68,232.06v-.46a3,3,0,0,0,.44,0,.6.6,0,0,0,.32-.18.55.55,0,0,0,.13-.24.5.5,0,0,0,0-.14h.56v3.4h-.69v-2.34Z" transform="translate(-7.05 -6.83)"/><path class="cls-15" d="M112.77,126.44a.16.16,0,0,0,.12-.06.17.17,0,0,0,0-.21L109,123.32l3.84-2.95a.14.14,0,0,0,0-.2.14.14,0,0,0-.2,0l-4,3.07a.14.14,0,0,0-.06.11.14.14,0,0,0,.06.12l4,3A.16.16,0,0,0,112.77,126.44Z" transform="translate(-7.05 -6.83)"/><path class="cls-16" d="M199.73,307.73h-53a3.12,3.12,0,0,0-3,3.2v40.88a3.12,3.12,0,0,0,3,3.19h53a3.12,3.12,0,0,0,3-3.19V310.93A3.12,3.12,0,0,0,199.73,307.73Z" transform="translate(-7.05 -6.83)"/><path class="cls-17" d="M172.09,343.4,166,335.79a2.45,2.45,0,0,0-3.51,0L144.6,351c-.78,1,.19,2.21,1.76,2.21h27V345Z" transform="translate(-7.05 -6.83)"/><path class="cls-17" d="M202.05,350.15,191,329a3.42,3.42,0,0,0-4.89,0l-8.41,10.59L173.39,345h0l0,0v8.22h26.57C202.1,353.23,203.14,351.52,202.05,350.15Z" transform="translate(-7.05 -6.83)"/><path class="cls-6" d="M155.33,325.43a4.33,4.33,0,0,0,4.2,4.46V321A4.34,4.34,0,0,0,155.33,325.43Z" transform="translate(-7.05 -6.83)"/><path class="cls-6" d="M159.53,321v8.92a4.47,4.47,0,0,0,0-8.92Z" transform="translate(-7.05 -6.83)"/><path class="cls-18" d="M149,353.1a2.86,2.86,0,0,1-2.77-3V312.42a2.86,2.86,0,0,1,2.77-2.95h24.3v-1.74H146.76a3.13,3.13,0,0,0-3,3.22v41.18a3.13,3.13,0,0,0,3,3.22h26.52V353.1Z" transform="translate(-7.05 -6.83)"/><path class="cls-18" d="M199.81,307.73H173.28v1.74h24.31a2.86,2.86,0,0,1,2.77,2.95v37.73a2.86,2.86,0,0,1-2.77,3H173.28v2.25h26.53a3.13,3.13,0,0,0,3-3.22V311A3.13,3.13,0,0,0,199.81,307.73Z" transform="translate(-7.05 -6.83)"/><text class="cls-19" transform="translate(111.31 118.02)">#designuiux</text><path class="cls-20" d="M128.75,378.54h1.36v4.52h-.88v-3.42c0-.16,0-.28,0-.37l-.86,3.79h-.92l-.85-3.79c0,.09,0,.21,0,.37v3.42h-.88v-4.52h1.37l.83,3.56Z" transform="translate(-7.05 -6.83)"/><path class="cls-20" d="M133.09,379.79a1.37,1.37,0,0,1,.58.49,1.74,1.74,0,0,1,.26.69,3.22,3.22,0,0,1,0,.67h-2.43a.78.78,0,0,0,.35.7.9.9,0,0,0,.48.13.72.72,0,0,0,.49-.16.92.92,0,0,0,.18-.23h.89a1.12,1.12,0,0,1-.33.61,1.62,1.62,0,0,1-1.25.48,1.79,1.79,0,0,1-1.18-.41,1.61,1.61,0,0,1-.51-1.33,1.82,1.82,0,0,1,.46-1.34,1.64,1.64,0,0,1,1.19-.46A1.8,1.8,0,0,1,133.09,379.79Zm-1.31.75a.93.93,0,0,0-.23.52h1.51a.76.76,0,0,0-.24-.53.77.77,0,0,0-.52-.18A.74.74,0,0,0,131.78,380.54Z" transform="translate(-7.05 -6.83)"/><path class="cls-20" d="M135.08,382a.64.64,0,0,0,.12.34.85.85,0,0,0,.61.17.83.83,0,0,0,.41-.08.24.24,0,0,0,.15-.23.25.25,0,0,0-.12-.22,5.14,5.14,0,0,0-.92-.26,1.87,1.87,0,0,1-.8-.36.75.75,0,0,1-.23-.6,1,1,0,0,1,.36-.79,1.46,1.46,0,0,1,1-.33,1.89,1.89,0,0,1,1,.25,1.06,1.06,0,0,1,.45.86h-.87a.66.66,0,0,0-.1-.27.6.6,0,0,0-.49-.18.71.71,0,0,0-.41.09.26.26,0,0,0-.12.21.23.23,0,0,0,.13.22,5.05,5.05,0,0,0,.91.24,1.67,1.67,0,0,1,.78.37.82.82,0,0,1,.26.63,1,1,0,0,1-.37.81,2.25,2.25,0,0,1-2.31,0,1.07,1.07,0,0,1-.37-.85Z" transform="translate(-7.05 -6.83)"/><path class="cls-20" d="M138.57,382a.64.64,0,0,0,.12.34.85.85,0,0,0,.61.17.81.81,0,0,0,.41-.08.24.24,0,0,0,.15-.23.25.25,0,0,0-.12-.22,5.14,5.14,0,0,0-.92-.26,1.87,1.87,0,0,1-.8-.36.75.75,0,0,1-.23-.6,1,1,0,0,1,.36-.79,1.48,1.48,0,0,1,1-.33,1.88,1.88,0,0,1,1,.25,1.06,1.06,0,0,1,.45.86h-.87a.66.66,0,0,0-.1-.27.6.6,0,0,0-.49-.18.71.71,0,0,0-.41.09.26.26,0,0,0-.12.21.23.23,0,0,0,.13.22,5.05,5.05,0,0,0,.91.24,1.67,1.67,0,0,1,.78.37.82.82,0,0,1,.26.63,1,1,0,0,1-.37.81,2.25,2.25,0,0,1-2.31,0,1.07,1.07,0,0,1-.37-.85Z" transform="translate(-7.05 -6.83)"/><path class="cls-20" d="M142.71,381a1.4,1.4,0,0,0,.35-.08.26.26,0,0,0,.19-.25.29.29,0,0,0-.15-.28.92.92,0,0,0-.42-.08.55.55,0,0,0-.45.16.59.59,0,0,0-.12.3h-.84a1.26,1.26,0,0,1,.24-.72,1.45,1.45,0,0,1,1.2-.44,2.11,2.11,0,0,1,1,.22.83.83,0,0,1,.42.82v1.53c0,.11,0,.24,0,.39a.52.52,0,0,0,0,.23.27.27,0,0,0,.13.1v.13h-1a.77.77,0,0,1,0-.19,1.2,1.2,0,0,1,0-.2,1.7,1.7,0,0,1-.42.33,1.24,1.24,0,0,1-.64.16,1.11,1.11,0,0,1-.75-.25,1.06,1.06,0,0,1,.18-1.63,2,2,0,0,1,.77-.21Zm.53.41-.17.08-.23.06-.2,0a1.12,1.12,0,0,0-.4.12.44.44,0,0,0-.08.69.45.45,0,0,0,.31.1.89.89,0,0,0,.52-.16.7.7,0,0,0,.25-.61Z" transform="translate(-7.05 -6.83)"/><path class="cls-20" d="M146.53,379.72a1,1,0,0,1,.51.48v-.48h.86v3.17a1.81,1.81,0,0,1-.22,1,1.6,1.6,0,0,1-1.44.57,2,2,0,0,1-1-.25.94.94,0,0,1-.45-.75h.95a.42.42,0,0,0,.12.22.73.73,0,0,0,.48.12.65.65,0,0,0,.63-.32,1.58,1.58,0,0,0,.1-.68v-.21a1,1,0,0,1-.27.32,1.1,1.1,0,0,1-.68.2,1.25,1.25,0,0,1-1-.46,1.81,1.81,0,0,1-.39-1.22,2.1,2.1,0,0,1,.37-1.25,1.23,1.23,0,0,1,1.05-.51A1.19,1.19,0,0,1,146.53,379.72Zm.3,2.39a1.07,1.07,0,0,0,.21-.74,1.16,1.16,0,0,0-.2-.72.68.68,0,0,0-.54-.25.64.64,0,0,0-.63.44,1.53,1.53,0,0,0-.09.56,1.21,1.21,0,0,0,.1.52.63.63,0,0,0,.63.42A.66.66,0,0,0,146.83,382.11Z" transform="translate(-7.05 -6.83)"/><path class="cls-20" d="M150.89,379.79a1.43,1.43,0,0,1,.58.49,1.74,1.74,0,0,1,.26.69,5.7,5.7,0,0,1,0,.67h-2.43a.78.78,0,0,0,.35.7.9.9,0,0,0,.48.13.68.68,0,0,0,.48-.16.62.62,0,0,0,.18-.23h.89a1.1,1.1,0,0,1-.32.61,1.64,1.64,0,0,1-1.26.48,1.78,1.78,0,0,1-1.17-.41,1.61,1.61,0,0,1-.51-1.33,1.82,1.82,0,0,1,.46-1.34,1.62,1.62,0,0,1,1.19-.46A1.86,1.86,0,0,1,150.89,379.79Zm-1.31.75a.93.93,0,0,0-.23.52h1.5a.71.71,0,0,0-.23-.53.77.77,0,0,0-.52-.18A.72.72,0,0,0,149.58,380.54Z" transform="translate(-7.05 -6.83)"/><path class="cls-20" d="M152.19,382.14h.92v.92h-.92Z" transform="translate(-7.05 -6.83)"/><path class="cls-20" d="M153.93,382.14h.93v.92h-.93Z" transform="translate(-7.05 -6.83)"/><path class="cls-20" d="M155.67,382.14h.93v.92h-.93Z" transform="translate(-7.05 -6.83)"/><line class="cls-21" x1="105.58" y1="374.65" x2="110.64" y2="374.65"/><line class="cls-21" x1="108.11" y1="372.12" x2="108.11" y2="377.18"/></g></svg>