<svg xmlns="http://www.w3.org/2000/svg" viewBox="0 0 215.36 403.8"><defs><style>.cls-1,.cls-15{fill:#fff;}.cls-2{fill:#e6e6e5;}.cls-3{fill:#676767;}.cls-4{fill:#d0c17b;}.cls-5{fill:#80cacc;}.cls-6,.cls-7{font-size:7.73px;}.cls-11,.cls-12,.cls-13,.cls-16,.cls-6,.cls-7{fill:#010101;}.cls-12,.cls-6{font-family:Helvetica-Bold, Helvetica;font-weight:700;}.cls-13,.cls-15,.cls-16,.cls-7{font-family:Helvetica-Light, Helvetica;font-weight:300;}.cls-8{fill:#8cc152;}.cls-9{fill:#c53760;}.cls-10{fill:#b53a3b;}.cls-12,.cls-13{font-size:4.36px;}.cls-14{fill:#2876b6;}.cls-15{font-size:6.05px;}.cls-16{font-size:8px;}.cls-17{fill:#989898;}.cls-18{fill:none;stroke:#989898;stroke-linecap:round;stroke-miterlimit:10;stroke-width:0.5px;}</style></defs><g id="Isolation_Mode" data-name="Isolation Mode"><rect class="cls-1" x="12.99" y="11.23" width="191.84" height="380.17"/><rect class="cls-2" x="13.29" y="10.04" width="191.84" height="43.1"/><rect class="cls-2" x="11.76" y="353.46" width="191.84" height="38.55"/><path class="cls-3" d="M187.65,7H39.58A33.65,33.65,0,0,0,5.93,40.61v336.5a33.65,33.65,0,0,0,33.65,33.65H187.65a33.65,33.65,0,0,0,33.65-33.65V40.61A33.65,33.65,0,0,0,187.65,7Zm20.19,370.15a20.19,20.19,0,0,1-20.19,20.19H39.58a20.19,20.19,0,0,1-20.19-20.19V40.61A20.19,20.19,0,0,1,39.58,20.42H59.77v6.73a6.73,6.73,0,0,0,6.73,6.73h94.23a6.73,6.73,0,0,0,6.73-6.73V20.42h20.19a20.19,20.19,0,0,1,20.19,20.19Z" transform="translate(-5.93 -6.96)"/><rect class="cls-4" x="24.26" y="62.79" width="27.07" height="27.07" rx="3.04"/><rect class="cls-5" x="24.26" y="103" width="27.07" height="27.07" rx="3.04"/><text class="cls-6" transform="translate(59.04 71.13)">jef</text><text class="cls-7" transform="translate(58.73 81.48)">Could you make change this based <tspan x="0" y="9.28">on the feedback from yesterday?</tspan></text><path class="cls-1" d="M50.93,90.46H36.51a.6.6,0,0,1-.31-.08.69.69,0,0,1-.31-.94l.37-.76c1.22-2.5,2-4,7.46-4s6.25,1.52,7.45,4c.12.26.25.52.36.74a.7.7,0,0,1-.6,1.08Z" transform="translate(-5.93 -6.96)"/><path class="cls-1" d="M43.72,76.1a3.63,3.63,0,0,1,2.58,1.07h0a3.63,3.63,0,0,1,0,5.15s0,0,0,0a3.64,3.64,0,0,1-5.11-5.19h0A3.63,3.63,0,0,1,43.72,76.1Z" transform="translate(-5.93 -6.96)"/><text class="cls-6" transform="translate(59.16 110.45)">ann</text><text class="cls-7" transform="translate(58.85 120.8)">Could you update this design?</text><path class="cls-1" d="M50.93,130.68H36.51a.71.71,0,0,1-.31-.08.7.7,0,0,1-.31-.95c.1-.2.24-.48.37-.76,1.22-2.5,2-4,7.46-4s6.25,1.52,7.45,4c.12.25.25.52.36.73a.7.7,0,0,1,.11.38A.71.71,0,0,1,50.93,130.68Z" transform="translate(-5.93 -6.96)"/><path class="cls-1" d="M43.72,116.32a3.63,3.63,0,0,1,2.58,1.06h0a3.65,3.65,0,0,1,0,5.16l0,0a3.64,3.64,0,0,1-5.11-5.19h0A3.62,3.62,0,0,1,43.72,116.32Z" transform="translate(-5.93 -6.96)"/><rect class="cls-8" x="24.47" y="145.06" width="27.07" height="27.07" rx="3.04"/><rect class="cls-9" x="24.47" y="193.93" width="27.07" height="27.07" rx="3.04"/><text class="cls-6" transform="translate(59.26 153.39)">kevin</text><text class="cls-7" transform="translate(58.95 163.74)">Yes the changes will be made as <tspan x="0" y="9.28">soon as possible</tspan></text><path class="cls-1" d="M51.15,172.73H36.72a.71.71,0,0,1-.31-.08.69.69,0,0,1-.31-.94l.37-.76c1.22-2.51,2-4,7.47-4s6.24,1.52,7.44,4c.12.26.25.52.36.74a.67.67,0,0,1,.11.37A.71.71,0,0,1,51.15,172.73Z" transform="translate(-5.93 -6.96)"/><path class="cls-1" d="M43.94,158.37a3.62,3.62,0,0,1,2.57,1.06h0a3.63,3.63,0,0,1,0,5.15l0,0a3.64,3.64,0,0,1-5.11-5.19h0A3.63,3.63,0,0,1,43.94,158.37Z" transform="translate(-5.93 -6.96)"/><text class="cls-6" transform="translate(59.37 201.38)">andrew</text><text class="cls-7" transform="translate(59.06 211.73)">Could you update the padding, and <tspan x="0" y="9.28">upload it to GitHub?</tspan></text><path class="cls-1" d="M51.15,221.61H36.72a.71.71,0,0,1-.31-.08.7.7,0,0,1-.31-.95c.1-.2.24-.48.37-.76,1.22-2.5,2-4,7.47-4s6.24,1.52,7.44,4c.12.25.25.52.36.73a.71.71,0,0,1-.59,1.09Z" transform="translate(-5.93 -6.96)"/><path class="cls-1" d="M43.94,207.25a3.62,3.62,0,0,1,2.57,1.06h0a3.65,3.65,0,0,1,0,5.16l0,0a3.65,3.65,0,0,1-5.11-5.2h0A3.63,3.63,0,0,1,43.94,207.25Z" transform="translate(-5.93 -6.96)"/><rect class="cls-2" x="59.05" y="176.01" width="16.31" height="10.19" rx="1.52"/><path class="cls-10" d="M67.48,188.55a2.86,2.86,0,0,1-1-2,1.72,1.72,0,0,1,1.83-1.82c1,0,1.38.48,2,1.16.6-.68,1-1.16,2-1.16a1.72,1.72,0,0,1,1.82,1.82,2.82,2.82,0,0,1-1,2l-2.85,2.84Z" transform="translate(-5.93 -6.96)"/><rect class="cls-8" x="24.73" y="234.07" width="27.07" height="27.07" rx="3.04"/><text class="cls-6" transform="translate(59.52 242.41)">kevin</text><text class="cls-7" transform="translate(59.21 252.75)">The design has been updated</text><path class="cls-1" d="M51.41,261.74H37a.7.7,0,0,1-.63-1l.38-.76c1.21-2.5,2-4,7.46-4s6.24,1.52,7.44,4c.13.26.25.53.36.74a.7.7,0,0,1-.59,1.08Z" transform="translate(-5.93 -6.96)"/><path class="cls-1" d="M44.2,247.38a3.63,3.63,0,0,1,2.57,1.07h0a3.63,3.63,0,0,1,0,5.15s0,0,0,0a3.64,3.64,0,0,1-5.11-5.19h0A3.63,3.63,0,0,1,44.2,247.38Z" transform="translate(-5.93 -6.96)"/><path class="cls-11" d="M76.9,187.23v-.58a2.84,2.84,0,0,0,.56-.06.78.78,0,0,0,.42-.22.86.86,0,0,0,.19-.49h.71v4.33h-.87v-3Z" transform="translate(-5.93 -6.96)"/><path class="cls-11" d="M31.1,52.53a.2.2,0,0,0,.15-.07.18.18,0,0,0,0-.26l-4.89-3.64,4.9-3.76a.19.19,0,0,0,0-.26.18.18,0,0,0-.26,0L25.9,48.41a.18.18,0,0,0-.07.15.21.21,0,0,0,.07.15L31,52.49A.17.17,0,0,0,31.1,52.53Z" transform="translate(-5.93 -6.96)"/><rect class="cls-9" x="58.34" y="279" width="15.26" height="15.26" rx="2.22"/><text class="cls-12" transform="translate(78.01 283.2)">andrew</text><text class="cls-13" transform="translate(77.84 289.04)">Great design!</text><path class="cls-1" d="M76,297.64H67.84a.41.41,0,0,1-.18-.05.39.39,0,0,1-.17-.53l.21-.43c.68-1.41,1.1-2.27,4.2-2.27s3.52.85,4.2,2.25l.2.42a.37.37,0,0,1,.06.21A.4.4,0,0,1,76,297.64Z" transform="translate(-5.93 -6.96)"/><path class="cls-1" d="M71.9,289.54a2,2,0,0,1,1.45.6h0a2,2,0,0,1,0,2.9l0,0a2.05,2.05,0,0,1-2.88,0,2.05,2.05,0,0,1,0-2.9h0A2,2,0,0,1,71.9,289.54Z" transform="translate(-5.93 -6.96)"/><rect class="cls-14" x="58.67" y="261.22" width="31.27" height="10.59" rx="1.64"/><text class="cls-15" transform="translate(64.85 268.47)">1 reply</text><text class="cls-16" transform="translate(32.3 43.56)">#designuiux</text><path class="cls-17" d="M51.49,374h1.73v5.76H52.1V375L51,379.8H49.84L48.76,375v.46c0,.21,0,.36,0,.47v3.9H47.65V374H49.4l1.05,4.53Z" transform="translate(-5.93 -6.96)"/><path class="cls-17" d="M57,375.63a1.72,1.72,0,0,1,.74.63,2.07,2.07,0,0,1,.33.88,4,4,0,0,1,0,.84H55a1,1,0,0,0,.44.9,1.12,1.12,0,0,0,.62.16,1,1,0,0,0,.62-.19,1.07,1.07,0,0,0,.23-.3h1.13a1.33,1.33,0,0,1-.41.77,2,2,0,0,1-1.6.63,2.31,2.31,0,0,1-1.5-.53,2,2,0,0,1-.65-1.7,2.31,2.31,0,0,1,.58-1.7,2,2,0,0,1,1.53-.59A2.32,2.32,0,0,1,57,375.63Zm-1.67,1a1.19,1.19,0,0,0-.29.66H57a.86.86,0,0,0-.29-.67,1,1,0,0,0-.66-.23A.9.9,0,0,0,55.35,376.59Z" transform="translate(-5.93 -6.96)"/><path class="cls-17" d="M59.56,378.44a.69.69,0,0,0,.15.42,1,1,0,0,0,.77.23A1.28,1.28,0,0,0,61,379a.31.31,0,0,0,.19-.29.31.31,0,0,0-.16-.29,5.77,5.77,0,0,0-1.16-.34,2.43,2.43,0,0,1-1-.45,1,1,0,0,1-.29-.76,1.33,1.33,0,0,1,.46-1,1.89,1.89,0,0,1,1.31-.42,2.41,2.41,0,0,1,1.3.32,1.35,1.35,0,0,1,.58,1.1H61.09a.55.55,0,0,0-.12-.34.76.76,0,0,0-.62-.23.93.93,0,0,0-.52.11.33.33,0,0,0-.16.27.3.3,0,0,0,.17.28,7.32,7.32,0,0,0,1.16.31,2.12,2.12,0,0,1,1,.47,1.06,1.06,0,0,1,.33.8,1.27,1.27,0,0,1-.48,1,2.18,2.18,0,0,1-1.45.41,2.21,2.21,0,0,1-1.49-.43,1.37,1.37,0,0,1-.48-1.08Z" transform="translate(-5.93 -6.96)"/><path class="cls-17" d="M64,378.44a.69.69,0,0,0,.15.42,1,1,0,0,0,.77.23,1.28,1.28,0,0,0,.53-.1.31.31,0,0,0,.19-.29.31.31,0,0,0-.16-.29,5.77,5.77,0,0,0-1.16-.34,2.38,2.38,0,0,1-1-.45,1,1,0,0,1-.3-.76,1.33,1.33,0,0,1,.46-1,1.89,1.89,0,0,1,1.31-.42,2.41,2.41,0,0,1,1.3.32,1.35,1.35,0,0,1,.58,1.1H65.55a.62.62,0,0,0-.13-.34.76.76,0,0,0-.62-.23.93.93,0,0,0-.52.11.33.33,0,0,0-.16.27.3.3,0,0,0,.17.28,7.32,7.32,0,0,0,1.16.31,2.12,2.12,0,0,1,1,.47,1.06,1.06,0,0,1,.33.8,1.27,1.27,0,0,1-.48,1,2.18,2.18,0,0,1-1.45.41,2.23,2.23,0,0,1-1.49-.43,1.37,1.37,0,0,1-.48-1.08Z" transform="translate(-5.93 -6.96)"/><path class="cls-17" d="M69.29,377.21a1.93,1.93,0,0,0,.44-.1.34.34,0,0,0,.24-.32.38.38,0,0,0-.18-.36,1.3,1.3,0,0,0-.54-.1.71.71,0,0,0-.57.2.87.87,0,0,0-.16.39H67.45a1.58,1.58,0,0,1,.31-.92,1.84,1.84,0,0,1,1.52-.56,2.65,2.65,0,0,1,1.25.28,1,1,0,0,1,.55,1v2.45a.59.59,0,0,0,.07.3.48.48,0,0,0,.17.13v.16H70.1c0-.09,0-.17-.07-.24s0-.16,0-.26a2.22,2.22,0,0,1-.53.43,1.72,1.72,0,0,1-.82.2,1.4,1.4,0,0,1-1-.33,1.18,1.18,0,0,1-.38-.93,1.2,1.2,0,0,1,.61-1.14,2.57,2.57,0,0,1,1-.27Zm.68.52-.22.11a1.33,1.33,0,0,1-.3.07l-.25,0a1.56,1.56,0,0,0-.51.15.51.51,0,0,0-.27.48.52.52,0,0,0,.16.41.65.65,0,0,0,.4.12,1.11,1.11,0,0,0,.67-.21.9.9,0,0,0,.32-.77Z" transform="translate(-5.93 -6.96)"/><path class="cls-17" d="M74.16,375.54a1.28,1.28,0,0,1,.65.61v-.61H75.9v4a2.19,2.19,0,0,1-.28,1.24,2,2,0,0,1-1.83.72,2.45,2.45,0,0,1-1.33-.32,1.19,1.19,0,0,1-.57-1H73.1a.5.5,0,0,0,.15.28,1,1,0,0,0,.61.15.8.8,0,0,0,.8-.4,2,2,0,0,0,.14-.87v-.27a1.32,1.32,0,0,1-.35.41,1.37,1.37,0,0,1-.86.25,1.62,1.62,0,0,1-1.31-.58,2.3,2.3,0,0,1-.49-1.56,2.65,2.65,0,0,1,.47-1.59,1.55,1.55,0,0,1,1.34-.65A1.4,1.4,0,0,1,74.16,375.54Zm.38,3a1.35,1.35,0,0,0,.27-.94,1.44,1.44,0,0,0-.26-.92.84.84,0,0,0-.68-.32.82.82,0,0,0-.81.55,2,2,0,0,0-.12.73,1.76,1.76,0,0,0,.13.66.81.81,0,0,0,.81.54A.85.85,0,0,0,74.54,378.59Z" transform="translate(-5.93 -6.96)"/><path class="cls-17" d="M79.72,375.63a1.7,1.7,0,0,1,.73.63,2,2,0,0,1,.34.88,6.06,6.06,0,0,1,0,.84h-3.1a1,1,0,0,0,.44.9,1.11,1.11,0,0,0,.61.16.92.92,0,0,0,.62-.19.8.8,0,0,0,.23-.3h1.14a1.39,1.39,0,0,1-.41.77,2.06,2.06,0,0,1-1.6.63,2.36,2.36,0,0,1-1.51-.53,2.07,2.07,0,0,1-.65-1.7,2.31,2.31,0,0,1,.59-1.7,2,2,0,0,1,1.52-.59A2.34,2.34,0,0,1,79.72,375.63Zm-1.67,1a1.13,1.13,0,0,0-.3.66h1.92a.93.93,0,0,0-.29-.67,1,1,0,0,0-.67-.23A.89.89,0,0,0,78.05,376.59Z" transform="translate(-5.93 -6.96)"/><path class="cls-17" d="M81.37,378.63h1.19v1.17H81.37Z" transform="translate(-5.93 -6.96)"/><path class="cls-17" d="M83.6,378.63h1.18v1.17H83.6Z" transform="translate(-5.93 -6.96)"/><path class="cls-17" d="M85.82,378.63H87v1.17H85.82Z" transform="translate(-5.93 -6.96)"/><line class="cls-18" x1="24.99" y1="370.83" x2="31.45" y2="370.83"/><line class="cls-18" x1="28.22" y1="367.61" x2="28.22" y2="374.06"/></g></svg>