<svg id="Layer_1" data-name="Layer 1" xmlns="http://www.w3.org/2000/svg" viewBox="0 0 165.69 29.97"><defs><style>.cls-1{fill:#30353d;}.cls-2{fill:#cc3c38;}.cls-3{fill:#fff;fill-rule:evenodd;}</style></defs><g id="Page-1"><g id="Group-2-Copy"><g id="logo-type"><g id="Group"><path id="Shape" class="cls-1" d="M51,15.66A3.25,3.25,0,0,1,49.16,19l1.74,6.58c.07.3-.08.46-.36.46H47.93a.41.41,0,0,1-.44-.36l-1.67-6.38H44.08V25.6a.37.37,0,0,1-.4.4H41.07a.37.37,0,0,1-.4-.4V6.31a.37.37,0,0,1,.4-.41h6.3C49.74,5.9,51,7.16,51,9.51ZM46.57,16a.9.9,0,0,0,1-1V10.23a.9.9,0,0,0-1-1H44.08V16Z" transform="translate(0 -1)"/><path id="Shape-2" data-name="Shape" class="cls-1" d="M53,9.52c0-2.36,1.26-3.62,3.62-3.62h2.82c2.36,0,3.62,1.26,3.62,3.61V22.37c0,2.37-1.26,3.61-3.62,3.61H56.62C54.26,26,53,24.72,53,22.37Zm5.81,13.24a.89.89,0,0,0,1-1V10.15a.9.9,0,0,0-1-1H57.35a.9.9,0,0,0-1,1V21.76a.9.9,0,0,0,1,1h1.46Z" transform="translate(0 -1)"/><path id="Shape-3" data-name="Shape" class="cls-1" d="M75.64,12.23a.37.37,0,0,1-.4.4H72.73a.36.36,0,0,1-.4-.4v-2a.9.9,0,0,0-1-1H70a.9.9,0,0,0-1,1V21.69a.9.9,0,0,0,1,1h1.3a.9.9,0,0,0,1-1v-2a.35.35,0,0,1,.4-.4h2.51a.36.36,0,0,1,.4.4v2.71C75.64,24.76,74.36,26,72,26H69.2c-2.36,0-3.64-1.26-3.64-3.62V9.52c0-2.36,1.28-3.61,3.64-3.61H72c2.34,0,3.62,1.25,3.62,3.61Z" transform="translate(0 -1)"/><path id="Shape-4" data-name="Shape" class="cls-1" d="M86.25,26a.56.56,0,0,1-.58-.38L82.5,18.16l-.93,1.78V25.5a.44.44,0,0,1-.49.5H78.67a.46.46,0,0,1-.51-.5V6.41a.45.45,0,0,1,.51-.5h2.41a.44.44,0,0,1,.49.5V14.2l3.87-7.91A.58.58,0,0,1,86,5.91h2.64c.37,0,.53.26.35.61l-4.28,8.77,4.56,10.15c.17.33,0,.58-.38.58H86.25Z" transform="translate(0 -1)"/><path id="Shape-5" data-name="Shape" class="cls-1" d="M101.15,8.82c0,.25-.1.43-.4.43H94.47v5h4.8c.26,0,.4.16.4.44v2.48a.38.38,0,0,1-.4.43h-4.8v5.07h6.28c.3,0,.4.12.4.4V25.6c0,.25-.1.4-.4.4H91.51a.36.36,0,0,1-.38-.4V6.31a.36.36,0,0,1,.38-.4h9.24a.35.35,0,0,1,.4.4Z" transform="translate(0 -1)"/><path id="Shape-6" data-name="Shape" class="cls-1" d="M112.82,5.9a.36.36,0,0,1,.39.4V8.81a.34.34,0,0,1-.39.39H109.9V25.59c0,.27-.12.39-.4.39h-2.62a.34.34,0,0,1-.39-.39V9.23h-2.92a.37.37,0,0,1-.4-.4V6.31a.37.37,0,0,1,.4-.4h9.25Z" transform="translate(0 -1)"/><path id="Shape-7" data-name="Shape" class="cls-1" d="M113,23.19a.45.45,0,0,1,.51-.5h2.28a.44.44,0,0,1,.5.5V25.5a.44.44,0,0,1-.5.5h-2.28a.46.46,0,0,1-.51-.5Z" transform="translate(0 -1)"/><path id="Shape-8" data-name="Shape" class="cls-1" d="M128.84,12.23a.37.37,0,0,1-.39.4h-2.52a.36.36,0,0,1-.4-.4v-2a.9.9,0,0,0-1-1h-1.31a.89.89,0,0,0-1,1V21.69a.89.89,0,0,0,1,1h1.31a.89.89,0,0,0,1-1v-2a.35.35,0,0,1,.4-.4h2.52a.36.36,0,0,1,.39.4v2.71c0,2.37-1.28,3.62-3.62,3.62H122.4c-2.36,0-3.64-1.26-3.64-3.62V9.52c0-2.36,1.28-3.61,3.64-3.61h2.82c2.34,0,3.62,1.26,3.62,3.61Z" transform="translate(0 -1)"/><path id="Shape-9" data-name="Shape" class="cls-1" d="M138,6.31a.37.37,0,0,1,.4-.4H141c.3,0,.43.16.43.4V25.6c0,.25-.12.4-.43.4h-2.58a.37.37,0,0,1-.4-.4v-8h-3.21v8a.37.37,0,0,1-.4.4h-2.59a.38.38,0,0,1-.43-.4V6.31c0-.25.12-.4.43-.4h2.59a.37.37,0,0,1,.4.4v8H138Z" transform="translate(0 -1)"/><path id="Shape-10" data-name="Shape" class="cls-1" d="M152.87,26a.39.39,0,0,1-.4-.36l-.7-3.66h-4.48l-.67,3.66c-.06.22-.18.36-.4.36h-2.68c-.28,0-.4-.16-.33-.43l4.16-19.33a.4.4,0,0,1,.43-.35h3.49a.4.4,0,0,1,.43.35l4.18,19.33c0,.27-.06.43-.36.43ZM149.54,10.3l-1.62,8.77h3.22Z" transform="translate(0 -1)"/><path id="Shape-11" data-name="Shape" class="cls-1" d="M165.29,5.9a.36.36,0,0,1,.4.4V8.81a.35.35,0,0,1-.4.39h-2.92V25.59c0,.27-.12.39-.4.39h-2.61a.35.35,0,0,1-.4-.39V9.23H156a.37.37,0,0,1-.4-.4V6.31a.37.37,0,0,1,.4-.4h9.25Z" transform="translate(0 -1)"/></g></g><g id="icon"><path id="rocket" class="cls-2" d="M29.88,12.63ZM10.26,2.27a14.31,14.31,0,0,1,2.9,2.14A24.32,24.32,0,0,1,17.37,4,20.89,20.89,0,0,1,28.79,7.2a12.91,12.91,0,0,1,3.78,3.72A9.35,9.35,0,0,1,34.09,16a9.2,9.2,0,0,1-1.52,5,12.78,12.78,0,0,1-3.78,3.72,21,21,0,0,1-11.42,3.16,23.46,23.46,0,0,1-4.21-.37,14.69,14.69,0,0,1-2.9,2.14A11.22,11.22,0,0,1,0,29.78s4.33-3.68,3.62-6.9A9.85,9.85,0,0,1,.64,16a9.82,9.82,0,0,1,3-6.87C4.33,5.87,0,2.2,0,2.2A11.2,11.2,0,0,1,10.26,2.27Z" transform="translate(0 -1)"/><path id="bubble" class="cls-3" d="M6.9,21.55A7.22,7.22,0,0,1,3.82,16C3.82,11.13,9.9,7.2,17.4,7.2S31,11.13,31,16,24.9,24.76,17.4,24.76a20.27,20.27,0,0,1-5.22-.67L11,25.23a11,11,0,0,1-2.16,1.61,8.65,8.65,0,0,1-3.06.87L6,27.4A7.36,7.36,0,0,0,6.9,21.55Z" transform="translate(0 -1)"/><path id="circles" class="cls-2" d="M10.9,18.07a2,2,0,1,1,2-2A2,2,0,0,1,10.9,18.07Zm6.42,0a2,2,0,1,1,2-2A2,2,0,0,1,17.32,18.07Zm6.43,0a2,2,0,1,1,2-2A2,2,0,0,1,23.75,18.07Z" transform="translate(0 -1)"/></g></g></g></svg>