<svg id="Capa_1" enable-background="new 0 0 501 501" height="10%" viewBox="0 0 501 501" width="10%" xmlns="http://www.w3.org/2000/svg"><g><path d="m490 256c0 105.8-67.063 195.937-161 230.221-3.056-6.92-10.558-10.735-17.95-9.13l-60.882 13.224-191.168-74.844c-36.778-42.856-59-98.568-59-159.471 0-135.172 109.467-244.777 244.587-245 135.048-.222 245.413 109.953 245.413 245z" fill="#4cacba"/><path d="m299 0h-210c-16.568 0-30 13.432-30 30v385.471c44.933 52.359 111.593 85.529 186 85.529 29.509 0 57.8-5.217 84-14.779v-456.221c0-16.568-13.431-30-30-30zm-40 480c-22.091 0-40-17.909-40-40s17.909-40 40-40 40 17.909 40 40-17.909 40-40 40z" fill="#f9f1d2"/><path d="m122.5 0c-16.569 0-30 13.431-30 30v417.764c-12.162-9.685-23.382-20.502-33.5-32.292v-385.472c0-16.568 13.432-30 30-30zm81.5 431v-392c0-4.971-4.029-9-9-9h-2c-4.971 0-9 4.029-9 9v392c0 4.971 4.029 9 9 9h2c4.971 0 9-4.029 9-9z" fill="#f1de96"/><path d="m159 60c0 22.091-17.909 40-40 40s-40-17.909-40-40 17.909-40 40-40 40 17.909 40 40z" fill="#20b7a1"/><path d="m155.44 76.52c-6.289 13.849-20.239 23.48-36.44 23.48-22.091 0-40-17.909-40-40 0-16.201 9.631-30.151 23.48-36.44-2.287 5.036-3.56 10.629-3.56 16.52 0 22.091 17.909 40 40 40 5.891 0 11.484-1.273 16.52-3.56z" fill="#199a8e"/><path d="m159 160c0 22.091-17.909 40-40 40s-40-17.909-40-40 17.909-40 40-40 40 17.909 40 40z" fill="#9773bd"/><path d="m299 260c0 22.091-17.909 40-40 40s-40-17.909-40-40 17.909-40 40-40 40 17.909 40 40z" fill="#644189"/><path d="m155.44 176.52c-6.289 13.849-20.239 23.48-36.44 23.48-22.091 0-40-17.909-40-40 0-16.201 9.631-30.151 23.48-36.44-2.287 5.036-3.56 10.629-3.56 16.52 0 22.091 17.909 40 40 40 5.891 0 11.484-1.273 16.52-3.56z" fill="#754ca0"/><path d="m295.44 276.52c-6.289 13.849-20.239 23.48-36.44 23.48-22.091 0-40-17.909-40-40 0-16.201 9.631-30.151 23.48-36.44-2.287 5.036-3.56 10.629-3.56 16.52 0 22.091 17.909 40 40 40 5.891 0 11.484-1.273 16.52-3.56z" fill="#533672"/><path d="m159 260c0 22.091-17.909 40-40 40s-40-17.909-40-40 17.909-40 40-40 40 17.909 40 40z" fill="#f87b67"/><path d="m299 60c0 22.091-17.909 40-40 40s-40-17.909-40-40 17.909-40 40-40 40 17.909 40 40z" fill="#f76c57"/><path d="m155.44 276.52c-6.289 13.849-20.239 23.48-36.44 23.48-22.091 0-40-17.909-40-40 0-16.201 9.631-30.151 23.48-36.44-2.287 5.036-3.56 10.629-3.56 16.52 0 22.091 17.909 40 40 40 5.891 0 11.484-1.273 16.52-3.56z" fill="#e5554e"/><path d="m295.44 76.52c-6.289 13.849-20.239 23.48-36.44 23.48-22.091 0-40-17.909-40-40 0-16.201 9.631-30.151 23.48-36.44-2.287 5.036-3.56 10.629-3.56 16.52 0 22.091 17.909 40 40 40 5.891 0 11.484-1.273 16.52-3.56z" fill="#e5554e"/><path d="m299 160c0 22.091-17.909 40-40 40s-40-17.909-40-40 17.909-40 40-40 40 17.909 40 40z" fill="#fff36c"/><path d="m295.44 176.52c-6.289 13.849-20.239 23.48-36.44 23.48-22.091 0-40-17.909-40-40 0-16.201 9.631-30.151 23.48-36.44-2.287 5.036-3.56 10.629-3.56 16.52 0 22.091 17.909 40 40 40 5.891 0 11.484-1.273 16.52-3.56z" fill="#edd578"/><path d="m159 360c0 22.091-17.909 40-40 40s-40-17.909-40-40 17.909-40 40-40 40 17.909 40 40z" fill="#edd578"/><path d="m155.44 376.52c-6.289 13.849-20.239 23.48-36.44 23.48-22.091 0-40-17.909-40-40 0-16.201 9.631-30.151 23.48-36.44-2.287 5.036-3.56 10.629-3.56 16.52 0 22.091 17.909 40 40 40 5.891 0 11.484-1.273 16.52-3.56z" fill="#e9cc5a"/><path d="m499.847 114.584c-4.699 57.855-31.239 117.198-78.624 164.583-1.974 1.974-3.969 3.913-5.984 5.814-63.984 60.396-143.859-16.646-89.791-81.289.623-.839 4.852-6.107 6.353-7.882 34.227-40.48 78.278-67.09 122.802-77.963-.693 1.809-1.405 3.62-2.138 5.432 15.723-4.509 31.608-7.414 47.382-8.695z" fill="#edd578"/><path d="m501 157.286c-10.74 44.414-37.174 88.32-77.462 122.39-1.767 1.494-3.546 2.958-5.338 4.39-3.114 2.491-12.18 8.635-13.587 9.622-11.586.581-22.737-3.178-30.851-11.292l-3.641-3.641c-15.394-15.394-15.062-41.707.806-61.289 3.838-4.737 6.766-8.162 7.529-8.925 37.213-37.213 78.626-65.876 120.524-85.294-1.499 12.636-4.033 25.311-7.592 37.885 3.208-1.344 6.412-2.627 9.612-3.846z" fill="#fff36c"/><path d="m447.124 222.469c-2.851 9.313-19.048 25.71-41.121 40.773-15.71 10.721-30.964 18.423-41.954 21.706-4.452 1.33-17.073-9.875-13.066-16.066 8.148-12.59 21.977-29.225 38.957-46.204 25.329-25.329 49.892-43.649 61.403-46.554-2.905 11.512-21.225 36.074-46.554 61.403-1.396 1.396-2.789 2.77-4.178 4.121 19.663-12.503 37.752-19.847 46.513-19.179z" fill="#edd578"/><path d="m296.838 317.194c13.668 13.668 13.668 35.829 0 49.497l-123.624 123.624c-23.726-7.26-45.92-18.024-65.98-31.689 1.4-2.267 3.083-4.408 5.049-6.374l135.057-135.058c13.669-13.668 35.829-13.668 49.498 0z" fill="#e5554e"/><path d="m176.14 466.176-3.536-3.536c-5.858-5.858-5.858-15.355 0-21.213l107.97-107.97c5.858-5.858 15.355-5.858 21.213 0l3.536 3.536c5.858 5.858 5.858 15.355 0 21.213l-107.97 107.97c-5.858 5.858-15.355 5.858-21.213 0z" fill="#f76c57"/><path d="m299.666 363.863-49.497-49.497 53.033-53.033c5.858-5.858 15.355-5.858 21.213 0l28.284 28.284c5.858 5.858 5.858 15.355 0 21.213z" fill="#4cacba"/><path d="m299.666 363.863-30.759-30.759 53.033-53.033c5.858-5.858 15.355-5.858 21.213 0l9.546 9.546c5.858 5.858 5.858 15.355 0 21.213z" fill="#95ced6"/><path d="m296.131 370.934-53.033-53.033c-2.929-2.929-2.929-7.678 0-10.607 2.929-2.929 7.678-2.929 10.607 0l53.033 53.033c2.929 2.929 2.929 7.678 0 10.607-2.93 2.929-7.678 2.929-10.607 0zm69.104-58.498c2.929-2.929 2.929-7.678 0-10.607l-53.033-53.033c-2.929-2.929-7.678-2.929-10.607 0-2.929 2.929-2.929 7.678 0 10.607l53.033 53.033c2.929 2.929 7.678 2.929 10.607 0z" fill="#95ced6"/><path d="m296.131 370.934-32.527-32.527c-2.929-2.929-2.929-7.678 0-10.607 2.929-2.929 7.678-2.929 10.607 0l32.527 32.527c2.929 2.929 2.929 7.678 0 10.607-2.93 2.929-7.678 2.929-10.607 0zm69.104-58.498c2.929-2.929 2.929-7.678 0-10.607l-32.527-32.527c-2.929-2.929-7.678-2.929-10.607 0-2.929 2.929-2.929 7.678 0 10.607l32.527 32.527c2.929 2.929 7.678 2.929 10.607 0z" fill="#badfe4"/><path d="m477.413 296.954c0 .48-.009.959-.028 1.435-.607 15.485-27.75 15.485-28.357 0-.019-.477-.028-.955-.028-1.435 0-11.53 5.422-21.979 14.207-29.589 8.785 7.61 14.206 18.059 14.206 29.589zm-7.892-68.665c15.001-22.493 25.595-46.672 31.479-71.003-3.2 1.22-6.404 2.502-9.611 3.846 4.373-15.45 7.199-31.052 8.458-46.548-15.774 1.282-31.659 4.187-47.382 8.695.732-1.812 1.445-3.623 2.138-5.432-28.462 6.95-56.731 20.333-82.364 39.658.184 5.021 1.515 9.322 4.428 12.193 9.504 9.368 34.309 2.01 43.333-.667 17.386-5.157 25.369-12.385 28.667-9.333 5.588 5.172-16.557 26.658-9.333 48 4.406 13.017 17.147 18.326 18 18.667 4.026 1.605 8.128 2.142 12.187 1.924z" fill="#533672"/></g></svg>