<?xml version="1.0" encoding="utf-8"?>
<!-- Generator: Adobe Illustrator 24.1.0, SVG Export Plug-In . SVG Version: 6.00 Build 0)  -->
<svg version="1.1" id="Layer_1" xmlns="http://www.w3.org/2000/svg" xmlns:xlink="http://www.w3.org/1999/xlink" x="0px" y="0px"
	 viewBox="0 0 1380.2 710" style="enable-background:new 0 0 1380.2 710;" xml:space="preserve">
<style type="text/css">
	.st0{fill:#676767;}
	.st1{fill:#FFFFFF;}
	.st2{fill:#101327;}
	.st3{fill:#F07270;}
	.st4{fill:#7D83C0;}
	.st5{fill:#A1BCA4;}
	.st6{fill:#D0C17B;}
	.st7{fill:#80CACC;}
	.st8{fill:#B6A3CE;}
	.st9{font-family:'Helvetica-Bold';}
	.st10{font-size:11.1769px;}
	.st11{font-family:'Helvetica-Light';}
	.st12{fill:#010101;}
	.st13{fill:#8CC152;}
	.st14{fill:#C53760;}
	.st15{font-size:14.7286px;}
	.st16{fill:#E6E6E5;}
	.st17{fill:#B53A3B;}
	.st18{fill:#F39647;}
	.st19{fill:#99CA72;}
	.st20{font-size:9.7267px;}
	.st21{opacity:0.5;fill:#FFFFFF;}
	.st22{fill:none;stroke:#CCCCCC;stroke-miterlimit:10;}
	.st23{fill:#CCCCCC;}
	.st24{fill:none;stroke:#818181;stroke-width:2;stroke-miterlimit:10;}
	.st25{fill:#B4B4B4;}
	.st26{font-family:'Avenir-Black';}
	.st27{font-size:10.5102px;}
	.st28{fill:none;stroke:#818181;stroke-miterlimit:10;}
</style>
<g>
	
		<image style="overflow:visible;opacity:0.75;" width="5289" height="2867" xlink:href="CAE894BCACC8A761.png"  transform="matrix(0.24 0 0 0.24 91.1662 7.3842)">
	</image>
	<g>
		<g>
			<path class="st0" d="M267.9,637l-168.6,1.2v19.9c0,8.5,6.3,15.4,14.1,15.4l1210.8,0c7.8,0,14.1-6.9,14.1-15.4v-21.4l-154.5,0.3"
				/>
			<path class="st0" d="M1182.4,638.4H255.3v-616c0-3.9,3.1-7,7-7h913.1c3.9,0,7,3.1,7,7V638.4z"/>
		</g>
	</g>
</g>
<rect x="272.1" y="44.8" class="st1" width="893.4" height="577.3"/>
<g>
	<circle class="st1" cx="718.8" cy="32.2" r="4.2"/>
	<path class="st1" d="M841.2,654.5H596.4c-2.2,0-4.1-1.8-4.1-4.1v-12.8h252.9v12.8C845.2,652.7,843.4,654.5,841.2,654.5z"/>
	<rect x="271.9" y="44.2" class="st2" width="290.2" height="578.8"/>
	<path class="st3" d="M329.8,154h-33c-1.7,0-3-1.4-3-3v-33c0-1.7,1.4-3,3-3h33c1.7,0,3,1.4,3,3v33C332.8,152.6,331.5,154,329.8,154z
		"/>
	<path class="st4" d="M329.8,212.1h-33c-1.7,0-3-1.4-3-3v-33c0-1.7,1.4-3,3-3h33c1.7,0,3,1.4,3,3v33
		C332.8,210.7,331.5,212.1,329.8,212.1z"/>
	<path class="st5" d="M329.8,270.2h-33c-1.7,0-3-1.4-3-3v-33c0-1.7,1.4-3,3-3h33c1.7,0,3,1.4,3,3v33
		C332.8,268.8,331.5,270.2,329.8,270.2z"/>
	<path class="st6" d="M329.8,328.3h-33c-1.7,0-3-1.4-3-3v-33c0-1.7,1.4-3,3-3h33c1.7,0,3,1.4,3,3v33
		C332.8,327,331.5,328.3,329.8,328.3z"/>
	<path class="st7" d="M329.8,386.4h-33c-1.7,0-3-1.4-3-3v-33c0-1.7,1.4-3,3-3h33c1.7,0,3,1.4,3,3v33
		C332.8,385.1,331.5,386.4,329.8,386.4z"/>
	<path class="st8" d="M329.8,444.6h-33c-1.7,0-3-1.4-3-3v-33c0-1.7,1.4-3,3-3h33c1.7,0,3,1.4,3,3v33
		C332.8,443.2,331.5,444.6,329.8,444.6z"/>
	<g>
		<text transform="matrix(1 0 0 1 344.4337 124.1191)" class="st1 st9 st10">general</text>
		<text transform="matrix(1 0 0 1 343.9836 139.0781)" class="st1 st11 st10">Guys this is awesome!</text>
	</g>
	<g>
		<path class="st1" d="M318.2,130.8c-0.3-1.3-1.1-2.2-2.2-2.8c-0.7-0.3-1.4-0.4-2.2-0.4c-1.6,0-2.8,0.6-3.8,1.8
			c-1,1.2-1.5,2.9-1.5,5.3c0,2.4,0.5,4,1.6,5c1.1,1,2.3,1.5,3.7,1.5c1.4,0,2.5-0.4,3.3-1.2c0.9-0.8,1.4-1.8,1.6-3.1h-4.5v-3.2h8
			v10.4h-2.7l-0.4-2.4c-0.8,0.9-1.5,1.6-2.1,1.9c-1.1,0.7-2.4,1-3.9,1c-2.6,0-4.7-0.9-6.3-2.7c-1.7-1.8-2.6-4.2-2.6-7.3
			c0-3.1,0.9-5.6,2.6-7.5c1.7-1.9,4-2.8,6.8-2.8c2.5,0,4.4,0.6,5.9,1.9c1.5,1.2,2.3,2.8,2.6,4.7H318.2z"/>
	</g>
	<g>
		<text transform="matrix(1 0 0 1 344.1232 183.1621)" class="st1 st9 st10">calendar</text>
		<text transform="matrix(1 0 0 1 343.672 198.1221)" class="st1 st11 st10">3 events today</text>
	</g>
	<g>
		<path class="st1" d="M307.5,184.8c1.6-1.6,3.5-2.4,5.9-2.4c3.2,0,5.6,1.1,7,3.2c0.8,1.2,1.3,2.4,1.3,3.6h-4
			c-0.3-0.9-0.6-1.6-1-2.1c-0.7-0.8-1.8-1.3-3.2-1.3c-1.4,0-2.6,0.6-3.4,1.8s-1.2,2.9-1.2,5s0.4,3.8,1.3,4.9c0.9,1.1,2,1.6,3.3,1.6
			c1.4,0,2.4-0.5,3.2-1.4c0.4-0.5,0.7-1.2,1-2.2h4c-0.3,2.1-1.2,3.8-2.7,5.1c-1.4,1.3-3.2,2-5.5,2c-2.7,0-4.9-0.9-6.5-2.7
			c-1.6-1.8-2.4-4.2-2.4-7.4C304.8,189.2,305.7,186.6,307.5,184.8z"/>
	</g>
	<g>
		<text transform="matrix(1 0 0 1 344.1427 242.2041)" class="st1 st9 st10">designuiux</text>
		<text transform="matrix(1 0 0 1 343.6916 257.165)" class="st1 st11 st10">Yes that is a great design</text>
	</g>
	<g>
		<path class="st1" d="M316.4,241.4c1.4,0.4,2.5,1.3,3.3,2.4c0.7,1,1.1,2,1.4,3.1c0.2,1.1,0.4,2.2,0.4,3.2c0,2.6-0.5,4.7-1.5,6.5
			c-1.4,2.4-3.6,3.6-6.5,3.6h-8.3V241h8.3C314.6,241,315.6,241.1,316.4,241.4z M309,244.3v12.6h3.7c1.9,0,3.2-0.9,4-2.8
			c0.4-1,0.6-2.3,0.6-3.7c0-2-0.3-3.5-0.9-4.5c-0.6-1.1-1.8-1.6-3.7-1.6H309z"/>
	</g>
	<g>
		<text transform="matrix(1 0 0 1 343.9914 301.248)" class="st1 st9 st10">jef</text>
		<text transform="matrix(1 0 0 1 343.5402 316.207)" class="st1 st11 st10">Hi, how are you?</text>
	</g>
	<g>
		<path class="st1" d="M323.7,319.1h-20.8l0,0c-0.2,0-0.3,0-0.5-0.1c-0.5-0.3-0.7-0.9-0.4-1.4c0.1-0.3,0.4-0.7,0.5-1.1
			c1.8-3.6,2.8-5.8,10.8-5.8c8,0,9,2.2,10.8,5.8c0.2,0.4,0.4,0.8,0.5,1.1c0.1,0.2,0.2,0.3,0.2,0.5
			C324.7,318.7,324.3,319.1,323.7,319.1z"/>
		<path class="st1" d="M313.3,298.4c1.4,0,2.8,0.6,3.7,1.5l0,0c1,1,1.5,2.3,1.5,3.7c0,1.5-0.6,2.8-1.5,3.7c0,0,0,0-0.1,0.1
			c-0.9,0.9-2.2,1.5-3.7,1.5c-1.5,0-2.8-0.6-3.7-1.5s-1.5-2.3-1.5-3.7c0-1.5,0.6-2.8,1.5-3.7l0,0v0
			C310.5,299,311.8,298.4,313.3,298.4z"/>
	</g>
	<g>
		<text transform="matrix(1 0 0 1 344.1603 358.083)" class="st1 st9 st10">ann</text>
		<text transform="matrix(1 0 0 1 343.7101 373.043)" class="st1 st11 st10">Could you update this design?</text>
	</g>
	<g>
		<path class="st1" d="M323.7,377.3h-20.8l0,0c-0.2,0-0.3,0-0.5-0.1c-0.5-0.3-0.7-0.9-0.4-1.4c0.1-0.3,0.4-0.7,0.5-1.1
			c1.8-3.6,2.8-5.8,10.8-5.8c8,0,9,2.2,10.8,5.8c0.2,0.4,0.4,0.8,0.5,1.1c0.1,0.2,0.2,0.3,0.2,0.5
			C324.7,376.8,324.3,377.3,323.7,377.3z"/>
		<path class="st1" d="M313.3,356.5c1.4,0,2.8,0.6,3.7,1.5l0,0c1,1,1.5,2.3,1.5,3.7s-0.6,2.8-1.5,3.7c0,0,0,0-0.1,0.1
			c-0.9,0.9-2.2,1.5-3.7,1.5c-1.5,0-2.8-0.6-3.7-1.5s-1.5-2.3-1.5-3.7s0.6-2.8,1.5-3.7l0,0v0C310.5,357.1,311.8,356.5,313.3,356.5z"
			/>
	</g>
	<g>
		<path class="st1" d="M309.1,428.7c0.1,0.9,0.4,1.5,0.7,2c0.7,0.8,1.8,1.2,3.4,1.2c1,0,1.8-0.1,2.4-0.3c1.2-0.4,1.7-1.1,1.7-2.2
			c0-0.6-0.3-1.1-0.8-1.5c-0.6-0.3-1.5-0.6-2.7-0.9l-2.1-0.5c-2.1-0.5-3.5-0.9-4.2-1.5c-1.3-0.9-2-2.3-2-4.2c0-1.7,0.6-3.2,1.9-4.3
			s3.1-1.7,5.6-1.7c2.1,0,3.8,0.5,5.3,1.6c1.5,1.1,2.2,2.6,2.3,4.7h-3.9c-0.1-1.2-0.6-2-1.6-2.5c-0.6-0.3-1.4-0.5-2.4-0.5
			c-1.1,0-1.9,0.2-2.6,0.6c-0.6,0.4-1,1-1,1.8c0,0.7,0.3,1.2,0.9,1.5c0.4,0.2,1.3,0.5,2.6,0.8l3.4,0.8c1.5,0.3,2.6,0.8,3.3,1.4
			c1.2,0.9,1.7,2.2,1.7,3.9c0,1.8-0.7,3.2-2,4.4c-1.4,1.2-3.3,1.7-5.8,1.7c-2.5,0-4.5-0.6-6-1.7s-2.2-2.7-2.2-4.7H309.1z"/>
	</g>
	<g>
		<text transform="matrix(1 0 0 1 344.713 414.623)" class="st1 st9 st10">coding</text>
		<text transform="matrix(1 0 0 1 344.2628 429.5825)" class="st1 st11 st10">Could you update this on the website?</text>
	</g>
	<path class="st6" d="M620.1,154.3h-33c-1.7,0-3-1.4-3-3v-33c0-1.7,1.4-3,3-3h33c1.7,0,3,1.4,3,3v33
		C623.1,152.9,621.7,154.3,620.1,154.3z"/>
	<path class="st7" d="M620.1,212.4h-33c-1.7,0-3-1.4-3-3v-33c0-1.7,1.4-3,3-3h33c1.7,0,3,1.4,3,3v33
		C623.1,211,621.7,212.4,620.1,212.4z"/>
	<g>
		<text transform="matrix(1 0 0 1 634.2551 127.2153)" class="st12 st9 st10">jef</text>
		<text transform="matrix(1 0 0 1 633.8039 142.1743)" class="st12 st11 st10">Could you make change this based on the feedback from yesterday?</text>
	</g>
	<g>
		<path class="st1" d="M614,145.1h-20.8l0,0c-0.2,0-0.3,0-0.5-0.1c-0.5-0.3-0.7-0.9-0.4-1.4c0.1-0.3,0.4-0.7,0.5-1.1
			c1.8-3.6,2.8-5.8,10.8-5.8c8,0,9,2.2,10.8,5.8c0.2,0.4,0.4,0.8,0.5,1.1c0.1,0.2,0.2,0.3,0.2,0.5C615,144.7,614.5,145.1,614,145.1z
			"/>
		<path class="st1" d="M603.5,124.4c1.4,0,2.8,0.6,3.7,1.5l0,0c1,1,1.5,2.3,1.5,3.7s-0.6,2.8-1.5,3.7c0,0,0,0-0.1,0.1
			c-0.9,0.9-2.2,1.5-3.7,1.5c-1.5,0-2.8-0.6-3.7-1.5s-1.5-2.3-1.5-3.7s0.6-2.8,1.5-3.7l0,0v0C600.8,124.9,602.1,124.4,603.5,124.4z"
			/>
	</g>
	<g>
		<text transform="matrix(1 0 0 1 634.424 184.0503)" class="st12 st9 st10">ann</text>
		<text transform="matrix(1 0 0 1 633.9738 199.0102)" class="st12 st11 st10">Could you update this design?</text>
	</g>
	<g>
		<path class="st1" d="M614,203.2h-20.8l0,0c-0.2,0-0.3,0-0.5-0.1c-0.5-0.3-0.7-0.9-0.4-1.4c0.1-0.3,0.4-0.7,0.5-1.1
			c1.8-3.6,2.8-5.8,10.8-5.8c8,0,9,2.2,10.8,5.8c0.2,0.4,0.4,0.8,0.5,1.1c0.1,0.2,0.2,0.3,0.2,0.5C615,202.8,614.5,203.2,614,203.2z
			"/>
		<path class="st1" d="M603.5,182.5c1.4,0,2.8,0.6,3.7,1.5l0,0c1,1,1.5,2.3,1.5,3.7s-0.6,2.8-1.5,3.7c0,0,0,0-0.1,0.1
			c-0.9,0.9-2.2,1.5-3.7,1.5c-1.5,0-2.8-0.6-3.7-1.5s-1.5-2.3-1.5-3.7s0.6-2.8,1.5-3.7l0,0v0C600.8,183.1,602.1,182.5,603.5,182.5z"
			/>
	</g>
	<path class="st13" d="M620.4,273.2h-33c-1.7,0-3-1.4-3-3v-33c0-1.7,1.4-3,3-3h33c1.7,0,3,1.4,3,3v33
		C623.4,271.8,622,273.2,620.4,273.2z"/>
	<path class="st14" d="M620.4,331.3h-33c-1.7,0-3-1.4-3-3v-33c0-1.7,1.4-3,3-3h33c1.7,0,3,1.4,3,3v33
		C623.4,329.9,622,331.3,620.4,331.3z"/>
	<g>
		<text transform="matrix(1 0 0 1 634.5617 246.1118)" class="st12 st9 st10">kevin</text>
		<text transform="matrix(1 0 0 1 634.1105 261.0708)" class="st12 st11 st10">Yes the changes will be made as soon as possible</text>
	</g>
	<g>
		<path class="st1" d="M614.3,264h-20.8l0,0c-0.2,0-0.3,0-0.5-0.1c-0.5-0.3-0.7-0.9-0.4-1.4c0.1-0.3,0.4-0.7,0.5-1.1
			c1.8-3.6,2.8-5.8,10.8-5.8c8,0,9,2.2,10.8,5.8c0.2,0.4,0.4,0.8,0.5,1.1c0.1,0.2,0.2,0.3,0.2,0.5C615.3,263.5,614.8,264,614.3,264z
			"/>
		<path class="st1" d="M603.8,243.2c1.4,0,2.8,0.6,3.7,1.5l0,0c1,1,1.5,2.3,1.5,3.7s-0.6,2.8-1.5,3.7c0,0,0,0-0.1,0.1
			c-0.9,0.9-2.2,1.5-3.7,1.5c-1.5,0-2.8-0.6-3.7-1.5s-1.5-2.3-1.5-3.7s0.6-2.8,1.5-3.7l0,0v0C601.1,243.8,602.4,243.2,603.8,243.2z"
			/>
	</g>
	<g>
		<text transform="matrix(1 0 0 1 634.7297 302.9468)" class="st12 st9 st10">andrew</text>
		<text transform="matrix(1 0 0 1 634.2805 317.9067)" class="st12 st11 st10">Could you update the padding, and upload it to GitHub?</text>
	</g>
	<g>
		<path class="st1" d="M614.3,322.1h-20.8l0,0c-0.2,0-0.3,0-0.5-0.1c-0.5-0.3-0.7-0.9-0.4-1.4c0.1-0.3,0.4-0.7,0.5-1.1
			c1.8-3.6,2.8-5.8,10.8-5.8c8,0,9,2.2,10.8,5.8c0.2,0.4,0.4,0.8,0.5,1.1c0.1,0.2,0.2,0.3,0.2,0.5
			C615.3,321.7,614.8,322.1,614.3,322.1z"/>
		<path class="st1" d="M603.8,301.4c1.4,0,2.8,0.6,3.7,1.5l0,0c1,1,1.5,2.3,1.5,3.7c0,1.5-0.6,2.8-1.5,3.7c0,0,0,0-0.1,0.1
			c-0.9,0.9-2.2,1.5-3.7,1.5c-1.5,0-2.8-0.6-3.7-1.5s-1.5-2.3-1.5-3.7c0-1.5,0.6-2.8,1.5-3.7l0,0v0
			C601.1,302,602.4,301.4,603.8,301.4z"/>
	</g>
	<text transform="matrix(1 0 0 1 293.4972 88.2236)" class="st1 st9 st10">Favorites</text>
	<text transform="matrix(1 0 0 1 583.3849 83.4985)" class="st12 st11 st15">#designuiux</text>
	<path class="st16" d="M656.3,281h-20.5c-0.8,0-1.5-0.7-1.5-1.5v-11.7c0-0.8,0.7-1.5,1.5-1.5h20.5c0.8,0,1.5,0.7,1.5,1.5v11.7
		C657.8,280.3,657.2,281,656.3,281z"/>
	<path class="st17" d="M637.9,274.3c-1-0.9-1.4-2-1.4-2.9c0-1.6,1-2.6,2.6-2.6c1.5,0,2,0.7,2.9,1.7c0.9-1,1.4-1.7,2.9-1.7
		c1.6,0,2.6,1,2.6,2.6c0,0.9-0.4,2-1.4,2.9l-4.1,4.1L637.9,274.3z"/>
	<g>
		<path class="st12" d="M652.3,272.5v-0.8c0.4,0,0.7,0,0.8-0.1c0.2-0.1,0.4-0.2,0.6-0.3c0.1-0.1,0.2-0.3,0.2-0.4c0-0.1,0-0.2,0-0.3
			h1v6.3h-1.3v-4.3H652.3z"/>
	</g>
	<path class="st13" d="M620.7,389.3h-33c-1.7,0-3-1.4-3-3v-33c0-1.7,1.4-3,3-3h33c1.7,0,3,1.4,3,3v33
		C623.8,388,622.4,389.3,620.7,389.3z"/>
	<g>
		<text transform="matrix(1 0 0 1 634.9396 362.2402)" class="st12 st9 st10">kevin</text>
		<text transform="matrix(1 0 0 1 634.4885 377.1992)" class="st12 st11 st10">The design has been updated</text>
	</g>
	<g>
		<path class="st1" d="M614.6,380.1h-20.8l0,0c-0.2,0-0.3,0-0.5-0.1c-0.5-0.3-0.7-0.9-0.4-1.4c0.1-0.3,0.4-0.7,0.5-1.1
			c1.8-3.6,2.8-5.8,10.8-5.8c8,0,9,2.2,10.8,5.8c0.2,0.4,0.4,0.8,0.5,1.1c0.1,0.2,0.2,0.3,0.2,0.5
			C615.7,379.7,615.2,380.1,614.6,380.1z"/>
		<path class="st1" d="M604.2,359.4c1.4,0,2.8,0.6,3.7,1.5l0,0c1,1,1.5,2.3,1.5,3.7s-0.6,2.8-1.5,3.7c0,0,0,0-0.1,0.1
			c-0.9,0.9-2.2,1.5-3.7,1.5c-1.5,0-2.8-0.6-3.7-1.5s-1.5-2.3-1.5-3.7s0.6-2.8,1.5-3.7l0,0v0C601.5,360,602.8,359.4,604.2,359.4z"/>
	</g>
	<circle class="st3" cx="279.6" cy="51.8" r="3.2"/>
	<circle class="st18" cx="288.9" cy="51.8" r="3.2"/>
	<circle class="st19" cx="298.2" cy="51.8" r="3.2"/>
	<g>
		
			<image style="overflow:visible;opacity:0.75;" width="1256" height="2245" xlink:href="CAE894BCACC8A763.png"  transform="matrix(0.24 0 0 0.24 5.9662 172.0242)">
		</image>
		<g>
			<g>
				<rect x="30.4" y="194.4" class="st2" width="241.5" height="478.7"/>
				<path class="st0" d="M242.8,180.3H56.4c-23.4,0-42.4,19-42.4,42.4v423.7c0,23.4,19,42.4,42.4,42.4h186.4
					c23.4,0,42.4-19,42.4-42.4V222.6C285.2,199.2,266.2,180.3,242.8,180.3z M268.3,646.3c0,14-11.4,25.4-25.4,25.4H56.4
					c-14,0-25.4-11.4-25.4-25.4V222.6c0-14,11.4-25.4,25.4-25.4h25.4v8.5c0,4.7,3.8,8.5,8.5,8.5h118.6c4.7,0,8.5-3.8,8.5-8.5v-8.5
					h25.4c14,0,25.4,11.4,25.4,25.4V646.3z"/>
				<path class="st3" d="M71.4,309.7h-28c-1.7,0-3-1.4-3-3v-28c0-1.7,1.4-3,3-3h28c1.7,0,3,1.4,3,3v28
					C74.4,308.4,73.1,309.7,71.4,309.7z"/>
				<path class="st4" d="M71.4,360.3h-28c-1.7,0-3-1.4-3-3v-28c0-1.7,1.4-3,3-3h28c1.7,0,3,1.4,3,3v28
					C74.4,359,73.1,360.3,71.4,360.3z"/>
				<path class="st5" d="M71.4,410.9h-28c-1.7,0-3-1.4-3-3v-28c0-1.7,1.4-3,3-3h28c1.7,0,3,1.4,3,3v28
					C74.4,409.5,73.1,410.9,71.4,410.9z"/>
				<path class="st6" d="M71.4,461.5h-28c-1.7,0-3-1.4-3-3v-28c0-1.7,1.4-3,3-3h28c1.7,0,3,1.4,3,3v28
					C74.4,460.1,73.1,461.5,71.4,461.5z"/>
				<path class="st7" d="M71.4,512.1h-28c-1.7,0-3-1.4-3-3v-28c0-1.7,1.4-3,3-3h28c1.7,0,3,1.4,3,3v28
					C74.4,510.7,73.1,512.1,71.4,512.1z"/>
				<path class="st8" d="M71.4,562.6h-28c-1.7,0-3-1.4-3-3v-28c0-1.7,1.4-3,3-3h28c1.7,0,3,1.4,3,3v28
					C74.4,561.3,73.1,562.6,71.4,562.6z"/>
				<g>
					<text transform="matrix(1 0 0 1 84.5382 283.77)" class="st1 st9 st20">general</text>
					<text transform="matrix(1 0 0 1 84.1457 296.7876)" class="st1 st11 st20">Guys this is awesome!</text>
				</g>
				<g>
					<path class="st1" d="M61.7,289.6c-0.3-1.1-0.9-1.9-1.9-2.4c-0.6-0.3-1.2-0.4-1.9-0.4c-1.4,0-2.5,0.5-3.3,1.5s-1.3,2.6-1.3,4.6
						c0,2.1,0.5,3.5,1.4,4.4c0.9,0.9,2,1.3,3.2,1.3c1.2,0,2.1-0.3,2.9-1c0.8-0.7,1.2-1.6,1.4-2.7h-3.9v-2.8h7v9h-2.3l-0.4-2.1
						c-0.7,0.8-1.3,1.4-1.8,1.7c-0.9,0.6-2.1,0.9-3.4,0.9c-2.2,0-4.1-0.8-5.5-2.3c-1.5-1.5-2.2-3.7-2.2-6.4c0-2.7,0.7-4.9,2.2-6.5
						c1.5-1.6,3.5-2.5,5.9-2.5c2.1,0,3.9,0.5,5.1,1.6c1.3,1.1,2,2.4,2.2,4.1H61.7z"/>
				</g>
				<g>
					<text transform="matrix(1 0 0 1 84.2677 335.1519)" class="st1 st9 st20">calendar</text>
					<text transform="matrix(1 0 0 1 83.8752 348.1694)" class="st1 st11 st20">3 events today</text>
				</g>
				<g>
					<path class="st1" d="M52.4,336.6c1.4-1.4,3.1-2.1,5.2-2.1c2.8,0,4.8,0.9,6.1,2.8c0.7,1,1.1,2.1,1.2,3.1h-3.5
						c-0.2-0.8-0.5-1.4-0.9-1.8c-0.6-0.7-1.6-1.1-2.8-1.1c-1.3,0-2.2,0.5-3,1.5c-0.7,1-1.1,2.5-1.1,4.4c0,1.9,0.4,3.3,1.1,4.2
						c0.8,0.9,1.7,1.4,2.9,1.4c1.2,0,2.1-0.4,2.8-1.2c0.3-0.4,0.6-1.1,0.9-1.9h3.5c-0.3,1.8-1.1,3.3-2.3,4.5s-2.8,1.7-4.8,1.7
						c-2.4,0-4.3-0.8-5.6-2.3c-1.4-1.6-2.1-3.7-2.1-6.4C50,340.4,50.8,338.2,52.4,336.6z"/>
				</g>
				<g>
					<text transform="matrix(1 0 0 1 84.2843 386.5337)" class="st1 st9 st20">designuiux</text>
					<text transform="matrix(1 0 0 1 83.8918 399.5513)" class="st1 st11 st20">Yes that is a great design</text>
				</g>
				<g>
					<path class="st1" d="M60.2,385.8c1.2,0.4,2.1,1.1,2.9,2.1c0.6,0.8,1,1.7,1.2,2.7c0.2,1,0.3,1.9,0.3,2.8c0,2.2-0.4,4.1-1.3,5.7
						c-1.2,2.1-3.1,3.1-5.6,3.1h-7.2v-16.8h7.2C58.6,385.5,59.5,385.6,60.2,385.8z M53.7,388.4v11H57c1.7,0,2.8-0.8,3.5-2.5
						c0.4-0.9,0.5-2,0.5-3.2c0-1.7-0.3-3-0.8-3.9c-0.5-0.9-1.6-1.4-3.2-1.4H53.7z"/>
				</g>
				<g>
					<text transform="matrix(1 0 0 1 84.1525 437.9165)" class="st1 st9 st20">jef</text>
					<text transform="matrix(1 0 0 1 83.7599 450.9341)" class="st1 st11 st20">Hi, how are you?</text>
				</g>
				<g>
					<path class="st1" d="M66.5,453.5H48.4l0,0c-0.1,0-0.3,0-0.4-0.1c-0.4-0.2-0.6-0.8-0.4-1.2c0.1-0.3,0.3-0.6,0.5-1
						c1.5-3.1,2.5-5.1,9.4-5.1c6.9,0,7.9,1.9,9.4,5c0.2,0.3,0.3,0.7,0.5,0.9c0.1,0.1,0.1,0.3,0.1,0.5
						C67.4,453.1,67,453.5,66.5,453.5z"/>
					<path class="st1" d="M57.4,435.4c1.3,0,2.4,0.5,3.2,1.3l0,0c0.8,0.8,1.3,2,1.3,3.2c0,1.3-0.5,2.4-1.3,3.2c0,0,0,0-0.1,0
						c-0.8,0.8-1.9,1.3-3.2,1.3c-1.3,0-2.4-0.5-3.2-1.3c-0.8-0.8-1.3-2-1.3-3.2c0-1.3,0.5-2.4,1.3-3.2l0,0v0
						C55,435.9,56.2,435.4,57.4,435.4z"/>
				</g>
				<g>
					<text transform="matrix(1 0 0 1 84.299 487.3765)" class="st1 st9 st20">ann</text>
					<text transform="matrix(1 0 0 1 83.9084 500.395)" class="st1 st11 st20">Could you update this design?</text>
				</g>
				<g>
					<path class="st1" d="M66.5,504.1H48.4l0,0c-0.1,0-0.3,0-0.4-0.1c-0.4-0.2-0.6-0.8-0.4-1.2c0.1-0.3,0.3-0.6,0.5-1
						c1.5-3.1,2.5-5.1,9.4-5.1c6.9,0,7.9,1.9,9.4,5c0.2,0.3,0.3,0.7,0.5,0.9c0.1,0.1,0.1,0.3,0.1,0.5
						C67.4,503.7,67,504.1,66.5,504.1z"/>
					<path class="st1" d="M57.4,486c1.3,0,2.4,0.5,3.2,1.3l0,0c0.8,0.8,1.3,2,1.3,3.2c0,1.3-0.5,2.4-1.3,3.2c0,0,0,0-0.1,0
						c-0.8,0.8-1.9,1.3-3.2,1.3c-1.3,0-2.4-0.5-3.2-1.3c-0.8-0.8-1.3-2-1.3-3.2c0-1.3,0.5-2.4,1.3-3.2l0,0v0
						C55,486.5,56.2,486,57.4,486z"/>
				</g>
				<g>
					<path class="st1" d="M53.8,548.9c0.1,0.8,0.3,1.3,0.6,1.7c0.6,0.7,1.6,1,3,1c0.8,0,1.5-0.1,2.1-0.3c1-0.3,1.5-1,1.5-1.9
						c0-0.6-0.2-1-0.7-1.3c-0.5-0.3-1.3-0.6-2.3-0.8l-1.8-0.4c-1.8-0.4-3-0.8-3.7-1.3c-1.1-0.8-1.7-2-1.7-3.6c0-1.5,0.6-2.8,1.7-3.8
						c1.1-1,2.7-1.5,4.9-1.5c1.8,0,3.3,0.5,4.6,1.4c1.3,0.9,1.9,2.3,2,4.1h-3.4c-0.1-1-0.5-1.7-1.4-2.2c-0.6-0.3-1.3-0.4-2.1-0.4
						c-0.9,0-1.7,0.2-2.2,0.5c-0.6,0.4-0.8,0.9-0.8,1.5c0,0.6,0.3,1,0.8,1.3c0.4,0.2,1.1,0.4,2.2,0.7l2.9,0.7
						c1.3,0.3,2.3,0.7,2.9,1.2c1,0.8,1.5,1.9,1.5,3.4c0,1.5-0.6,2.8-1.8,3.8c-1.2,1-2.9,1.5-5,1.5c-2.2,0-4-0.5-5.2-1.5
						s-1.9-2.4-1.9-4.1H53.8z"/>
				</g>
				<g>
					<text transform="matrix(1 0 0 1 84.7814 536.5796)" class="st1 st9 st20">coding</text>
					<text transform="matrix(1 0 0 1 84.3888 549.5981)" class="st1 st11 st20">Could you update this on the website?</text>
				</g>
				<path class="st21" d="M257.2,257.2H43.4c-1.7,0-3-1.4-3-3v-11.5c0-1.7,1.4-3,3-3h213.8c1.7,0,3,1.4,3,3v11.5
					C260.2,255.9,258.9,257.2,257.2,257.2z"/>
				<g>
					<circle class="st22" cx="46.2" cy="248.5" r="2.9"/>
				</g>
				<g>
					<line class="st22" x1="48.7" y1="250.3" x2="52.5" y2="253.4"/>
				</g>
				<text transform="matrix(1 0 0 1 58.7355 252.2847)" class="st23 st11 st20">Search</text>
			</g>
		</g>
	</g>
	<rect x="584.3" y="569.5" class="st24" width="554" height="40"/>
	<text transform="matrix(1 0 0 1 612.3117 593.7896)" class="st25 st26 st27">Message</text>
	<g>
		<g>
			<g>
				<g>
					<path class="st0" d="M602.6,586.4c0.2,0.2,0.3,0.4,0.5,0.6c0,0-0.1-0.1-0.1-0.1c0.3,0.4,0.5,0.8,0.7,1.3c0,0,0-0.1-0.1-0.1
						c0.2,0.5,0.3,1,0.4,1.5c0-0.1,0-0.1,0-0.2c0.1,0.5,0.1,1,0,1.6c0-0.1,0-0.1,0-0.2c-0.1,0.5-0.2,1-0.4,1.5c0,0,0-0.1,0.1-0.1
						c-0.2,0.5-0.4,0.9-0.7,1.3c0,0,0.1-0.1,0.1-0.1c-0.3,0.4-0.7,0.8-1,1.1c0,0,0.1-0.1,0.1-0.1c-0.4,0.3-0.8,0.6-1.3,0.8
						c0,0,0.1,0,0.1-0.1c-0.5,0.2-0.9,0.3-1.4,0.4c0.1,0,0.1,0,0.2,0c-0.5,0.1-1,0.1-1.5,0c0.1,0,0.1,0,0.2,0
						c-0.5-0.1-1-0.2-1.4-0.4c0,0,0.1,0,0.1,0.1c-0.4-0.2-0.9-0.5-1.3-0.8c0,0,0.1,0.1,0.1,0.1c-0.4-0.3-0.7-0.7-1-1.1
						c0,0,0.1,0.1,0.1,0.1c-0.3-0.4-0.5-0.8-0.7-1.3c0,0,0,0.1,0.1,0.1c-0.2-0.5-0.3-1-0.4-1.5c0,0.1,0,0.1,0,0.2
						c-0.1-0.5-0.1-1,0-1.6c0,0.1,0,0.1,0,0.2c0.1-0.5,0.2-1,0.4-1.5c0,0,0,0.1-0.1,0.1c0.2-0.5,0.4-0.9,0.7-1.3
						c0,0-0.1,0.1-0.1,0.1c0.3-0.4,0.7-0.8,1-1.1c0,0-0.1,0.1-0.1,0.1c0.4-0.3,0.8-0.6,1.3-0.8c0,0-0.1,0-0.1,0.1
						c0.5-0.2,0.9-0.3,1.4-0.4c-0.1,0-0.1,0-0.2,0c0.5-0.1,1-0.1,1.5,0c-0.1,0-0.1,0-0.2,0c0.5,0.1,1,0.2,1.4,0.4c0,0-0.1,0-0.1-0.1
						c0.4,0.2,0.9,0.5,1.3,0.8c0,0-0.1-0.1-0.1-0.1C602.3,586.1,602.5,586.2,602.6,586.4c0.2,0.2,0.6,0.2,0.8,0
						c0.2-0.2,0.2-0.6,0-0.9c-0.9-0.9-2.1-1.6-3.3-1.8c-0.6-0.1-1.2-0.1-1.8,0c-0.3,0-0.7,0.1-1,0.2c-0.3,0.1-0.6,0.2-0.9,0.4
						c-1.2,0.6-2.2,1.5-2.8,2.7c-0.6,1.1-0.9,2.5-0.8,3.8c0.1,0.7,0.2,1.3,0.5,1.9c0.3,0.6,0.6,1.2,1,1.7c0.8,1,2,1.7,3.2,2.1
						c1.2,0.3,2.5,0.2,3.7-0.2c0.3-0.1,0.6-0.3,0.9-0.4c0.3-0.2,0.6-0.4,0.8-0.6c0.5-0.4,0.9-0.9,1.3-1.5c0.7-1.1,1-2.4,1-3.7
						c0-1.3-0.4-2.6-1.2-3.7c-0.2-0.3-0.4-0.6-0.7-0.8c-0.2-0.2-0.6-0.2-0.8,0C602.4,585.8,602.4,586.2,602.6,586.4z"/>
				</g>
			</g>
		</g>
		<g>
			<g>
				<g>
					<path class="st0" d="M596.9,588.4C596.9,588.5,596.9,588.5,596.9,588.4C596.9,588.4,596.9,588.4,596.9,588.4
						C596.9,588.4,596.9,588.4,596.9,588.4c0,0,0-0.1,0-0.1C596.9,588.3,596.9,588.4,596.9,588.4c0-0.1,0-0.1,0.1-0.1
						C597,588.3,596.9,588.3,596.9,588.4c0-0.1,0.1-0.1,0.1-0.2C597,588.3,597,588.3,596.9,588.4c0.1-0.1,0.1-0.1,0.2-0.2
						c0,0-0.1,0-0.1,0c0.1,0,0.1,0,0.2,0c0,0-0.1,0-0.1,0c0.1,0,0.1,0,0.2,0c0,0-0.1,0-0.1,0c0,0,0.1,0,0.1,0.1c0,0-0.1,0-0.1-0.1
						c0,0,0.1,0.1,0.1,0.1c0,0-0.1-0.1-0.1-0.1c0,0,0.1,0.1,0.1,0.1c0,0,0-0.1-0.1-0.1c0,0,0,0.1,0.1,0.1c0,0,0-0.1,0-0.1
						c0,0.1,0,0.1,0,0.2c0,0,0-0.1,0-0.1c0,0.1,0,0.1,0,0.2c0,0,0-0.1,0-0.1c0,0,0,0.1-0.1,0.1c0,0,0-0.1,0.1-0.1
						c0,0-0.1,0.1-0.1,0.1c0,0,0.1-0.1,0.1-0.1c0,0-0.1,0.1-0.1,0.1c0,0,0.1,0,0.1-0.1c0,0-0.1,0-0.1,0.1c0,0,0.1,0,0.1,0
						c-0.1,0-0.1,0-0.2,0c0,0,0.1,0,0.1,0c-0.1,0-0.1,0-0.2,0c0,0,0.1,0,0.1,0C597,588.6,597,588.5,596.9,588.4
						c0.1,0.1,0.1,0.1,0.1,0.2C597,588.6,596.9,588.5,596.9,588.4c0,0.1,0.1,0.1,0.1,0.1C596.9,588.5,596.9,588.5,596.9,588.4
						c0,0.1,0,0.1,0,0.1C596.9,588.5,596.9,588.5,596.9,588.4C596.9,588.4,596.9,588.5,596.9,588.4
						C596.9,588.5,596.9,588.4,596.9,588.4C596.9,588.4,596.9,588.4,596.9,588.4c0,0.2,0.1,0.3,0.2,0.4c0.1,0.1,0.3,0.2,0.4,0.2
						c0.3,0,0.6-0.3,0.6-0.6c0-0.5-0.3-0.9-0.7-1c-0.4-0.1-0.8,0-1.1,0.3c-0.3,0.3-0.4,0.8-0.1,1.2c0.2,0.4,0.7,0.6,1.1,0.5
						c0.5-0.1,0.8-0.6,0.8-1c0-0.3-0.3-0.6-0.6-0.6C597.2,587.8,596.9,588.1,596.9,588.4z"/>
				</g>
			</g>
		</g>
		<g>
			<g>
				<g>
					<path class="st0" d="M600.9,588.5C600.9,588.5,600.9,588.5,600.9,588.5C600.9,588.5,600.9,588.4,600.9,588.5
						C600.9,588.4,600.9,588.4,600.9,588.5c0,0,0-0.1,0-0.1C600.9,588.4,600.9,588.4,600.9,588.5c0-0.1,0-0.1,0.1-0.1
						C601,588.3,600.9,588.4,600.9,588.5c0-0.1,0.1-0.1,0.1-0.2C601,588.3,601,588.3,600.9,588.5c0.1-0.1,0.1-0.1,0.2-0.2
						c0,0-0.1,0-0.1,0c0.1,0,0.1,0,0.2,0c0,0-0.1,0-0.1,0c0.1,0,0.1,0,0.2,0c0,0-0.1,0-0.1,0c0,0,0.1,0,0.1,0.1c0,0-0.1,0-0.1-0.1
						c0,0,0.1,0.1,0.1,0.1c0,0-0.1-0.1-0.1-0.1c0,0,0.1,0.1,0.1,0.1c0,0,0-0.1-0.1-0.1c0,0,0,0.1,0.1,0.1c0,0,0-0.1,0-0.1
						c0,0.1,0,0.1,0,0.2c0,0,0-0.1,0-0.1c0,0.1,0,0.1,0,0.2c0,0,0-0.1,0-0.1c0,0,0,0.1-0.1,0.1c0,0,0-0.1,0.1-0.1
						c0,0-0.1,0.1-0.1,0.1c0,0,0.1-0.1,0.1-0.1c0,0-0.1,0.1-0.1,0.1c0,0,0.1,0,0.1-0.1c0,0-0.1,0-0.1,0.1c0,0,0.1,0,0.1,0
						c-0.1,0-0.1,0-0.2,0c0,0,0.1,0,0.1,0c-0.1,0-0.1,0-0.2,0c0,0,0.1,0,0.1,0C601,588.6,601,588.6,600.9,588.5
						c0.1,0.1,0.1,0.1,0.1,0.2C601,588.6,600.9,588.6,600.9,588.5c0,0.1,0.1,0.1,0.1,0.1C601,588.6,600.9,588.5,600.9,588.5
						c0,0.1,0,0.1,0,0.1C600.9,588.5,600.9,588.5,600.9,588.5C600.9,588.5,600.9,588.5,600.9,588.5
						C600.9,588.5,600.9,588.4,600.9,588.5C600.9,588.4,600.9,588.4,600.9,588.5c0,0.2,0.1,0.3,0.2,0.4c0.1,0.1,0.3,0.2,0.4,0.2
						c0.3,0,0.6-0.3,0.6-0.6c0-0.5-0.3-0.9-0.7-1c-0.4-0.1-0.8,0-1.1,0.3c-0.3,0.3-0.4,0.8-0.1,1.2c0.2,0.4,0.7,0.6,1.1,0.5
						c0.5-0.1,0.8-0.6,0.8-1c0-0.3-0.3-0.6-0.6-0.6C601.2,587.9,600.9,588.1,600.9,588.5z"/>
				</g>
			</g>
		</g>
		<g>
			<g>
				<g>
					<path class="st0" d="M601.3,591.4c-0.1,0.2-0.2,0.3-0.3,0.5c0,0,0.1-0.1,0.1-0.1c-0.2,0.2-0.4,0.4-0.6,0.6c0,0,0.1-0.1,0.1-0.1
						c-0.2,0.2-0.5,0.3-0.7,0.4c0,0,0.1,0,0.1-0.1c-0.3,0.1-0.5,0.2-0.8,0.2c0.1,0,0.1,0,0.2,0c-0.3,0-0.6,0-0.9,0
						c0.1,0,0.1,0,0.2,0c-0.3,0-0.5-0.1-0.8-0.2c0,0,0.1,0,0.1,0.1c-0.3-0.1-0.5-0.3-0.7-0.4c0,0,0.1,0.1,0.1,0.1
						c-0.2-0.2-0.4-0.4-0.6-0.6c0,0,0.1,0.1,0.1,0.1c-0.1-0.2-0.2-0.3-0.3-0.5c-0.1-0.3-0.5-0.4-0.8-0.2c-0.3,0.2-0.4,0.5-0.2,0.8
						c0.5,1,1.4,1.7,2.4,2c1,0.2,2,0.1,2.8-0.5c0.5-0.4,1-0.9,1.3-1.5c0.1-0.1,0.1-0.3,0.1-0.5c0-0.1-0.1-0.3-0.3-0.4
						C601.9,591,601.5,591.1,601.3,591.4L601.3,591.4z"/>
				</g>
			</g>
		</g>
	</g>
	<line class="st28" x1="1109.5" y1="589.3" x2="1125.5" y2="589.3"/>
	<line class="st28" x1="1117.5" y1="581.3" x2="1117.5" y2="597.3"/>
</g>
</svg>
